<?xml version="1.0" encoding="utf-8"?>
<!-- Generator: Adobe Illustrator 15.0.0, SVG Export Plug-In . SVG Version: 6.00 Build 0)  -->
<!DOCTYPE svg PUBLIC "-//W3C//DTD SVG 1.1//EN" "http://www.w3.org/Graphics/SVG/1.1/DTD/svg11.dtd">
<svg version="1.1" id="Layer_1" xmlns="http://www.w3.org/2000/svg" xmlns:xlink="http://www.w3.org/1999/xlink" x="0px" y="0px"
	 width="450px" height="72px" viewBox="0 0 450 72" enable-background="new 0 0 450 72" xml:space="preserve">
<metadata><?xpacket begin="﻿" id="W5M0MpCehiHzreSzNTczkc9d"?>
<x:xmpmeta xmlns:x="adobe:ns:meta/" x:xmptk="Adobe XMP Core 5.0-c060 61.134777, 2010/02/12-17:32:00        ">
   <rdf:RDF xmlns:rdf="http://www.w3.org/1999/02/22-rdf-syntax-ns#">
      <rdf:Description rdf:about=""
            xmlns:dc="http://purl.org/dc/elements/1.1/">
         <dc:format>image/svg+xml</dc:format>
         <dc:title>
            <rdf:Alt>
               <rdf:li xml:lang="x-default">Basic CMYK</rdf:li>
            </rdf:Alt>
         </dc:title>
      </rdf:Description>
      <rdf:Description rdf:about=""
            xmlns:xmp="http://ns.adobe.com/xap/1.0/"
            xmlns:xmpGImg="http://ns.adobe.com/xap/1.0/g/img/">
         <xmp:MetadataDate>2014-09-25T16:28:24+05:30</xmp:MetadataDate>
         <xmp:ModifyDate>2014-09-25T16:28:24+05:30</xmp:ModifyDate>
         <xmp:CreateDate>2014-09-25T16:28:23+05:30</xmp:CreateDate>
         <xmp:CreatorTool>Adobe Illustrator CS5</xmp:CreatorTool>
         <xmp:Thumbnails>
            <rdf:Alt>
               <rdf:li rdf:parseType="Resource">
                  <xmpGImg:width>256</xmpGImg:width>
                  <xmpGImg:height>44</xmpGImg:height>
                  <xmpGImg:format>JPEG</xmpGImg:format>
                  <xmpGImg:image>/9j/4AAQSkZJRgABAgEBLAEsAAD/7QAsUGhvdG9zaG9wIDMuMAA4QklNA+0AAAAAABABLAAAAAEA&#xA;AQEsAAAAAQAB/+4ADkFkb2JlAGTAAAAAAf/bAIQABgQEBAUEBgUFBgkGBQYJCwgGBggLDAoKCwoK&#xA;DBAMDAwMDAwQDA4PEA8ODBMTFBQTExwbGxscHx8fHx8fHx8fHwEHBwcNDA0YEBAYGhURFRofHx8f&#xA;Hx8fHx8fHx8fHx8fHx8fHx8fHx8fHx8fHx8fHx8fHx8fHx8fHx8fHx8fHx8f/8AAEQgALAEAAwER&#xA;AAIRAQMRAf/EAaIAAAAHAQEBAQEAAAAAAAAAAAQFAwIGAQAHCAkKCwEAAgIDAQEBAQEAAAAAAAAA&#xA;AQACAwQFBgcICQoLEAACAQMDAgQCBgcDBAIGAnMBAgMRBAAFIRIxQVEGE2EicYEUMpGhBxWxQiPB&#xA;UtHhMxZi8CRygvElQzRTkqKyY3PCNUQnk6OzNhdUZHTD0uIIJoMJChgZhJRFRqS0VtNVKBry4/PE&#xA;1OT0ZXWFlaW1xdXl9WZ2hpamtsbW5vY3R1dnd4eXp7fH1+f3OEhYaHiImKi4yNjo+Ck5SVlpeYmZ&#xA;qbnJ2en5KjpKWmp6ipqqusra6voRAAICAQIDBQUEBQYECAMDbQEAAhEDBCESMUEFURNhIgZxgZEy&#xA;obHwFMHR4SNCFVJicvEzJDRDghaSUyWiY7LCB3PSNeJEgxdUkwgJChgZJjZFGidkdFU38qOzwygp&#xA;0+PzhJSktMTU5PRldYWVpbXF1eX1RlZmdoaWprbG1ub2R1dnd4eXp7fH1+f3OEhYaHiImKi4yNjo&#xA;+DlJWWl5iZmpucnZ6fkqOkpaanqKmqq6ytrq+v/aAAwDAQACEQMRAD8A9U4q7FXYq7FXYq7FXYq7&#xA;FXYq7FXYq7FXYq7FXYq7FXYq7FXYq7FXYq7FXYq7FXYqh7iaRLm1jU0WV2Vx4gRsw/EYqiMVeced&#xA;PzUtLFpoLG/ttOsrZ2ivNeuh6qmWMgPbafbAhrudC1HI+CM/a5Gqi2ONqnkebeZn8zXuvXmjWtjD&#xA;rckUsTrq+qST62XtpwkiOum26PBDVag0hVOtN98sjVW0yu65/arPo2t6XoEs1z5Y0a41n67zR10e&#xA;4sYrexEJcwrd2sERiYS04tIwHE1LV6NgnmmiByHyZF5S86eY7ezjvlD2tq8kcEOj6vqEN3b3UkvI&#xA;rHpmqs3qvL8BosvNDsA61rkZRDKMz+P1vV9B17T9csPrlkzhVdobiCVTHNDNGaSQzRtujoeo+kVB&#xA;Bykim8St5jovmD8z/wAyZdQ1PyxrNv5U8q29xJa6Xdm0jv7q8MTcWlZZWEaIe1Plv1y0iMee5aRK&#xA;U9waCdeX9T/NfTU8xWPmuG3vIdPs3utJ8zWojiSZghPpyW/IsGU/5NNt+oJiRE1TKJkLtitl+aHn&#xA;K18l/l95z1K7SXSdSunsvNC+jGoAnleOC4DKB6ax8PipsdsmYCyGAyGgfmzz83fOd35S8k3V/pw5&#xA;61dSR2GjRcQxa7uG4pRTUMVUM9D1pTK8cbLZlnwhKdO8z+bbb82dJ8n6lepc258sJqGoFYo19S/F&#xA;w0Ukisqgqp47KNskYjhvzQJHiryRn5NebNb8z+X9UvNYmWa4tdXvLOFlRYwIYSvBaIADTl1wZIgH&#xA;ZcUiRv3s9ytteN+V7/8ANXzjrXm36j5vi0ey0TXLzTLW2OlwXRMUMh4EyF4jspA3r88vkIxA26OP&#xA;EykTvyLIdY/5WB5T8ieadX1PzNHrd9bWLz6ZIunxWYt5IUcsSqvKJORK/a6U98gKJApmeKMSSbUv&#xA;yX/MXU/M+lTaZ5jUQ+atNWKW6QKEWe1uVEtvcxqKDiyMAadD4VphyQrlyXFMkUeaTaf+cGrad+V+&#xA;oeZdTjGp6uNXudK0q1RVjEsvrGOCM8ANgASe5p44TjBlTEZSI2e9Hv5b/P8AksDqQ85WEOqel6g0&#xA;BNNhNp6nX0vrTM01P2eVP64OKHcnhn3rvPHnbz7ov5I3vma8sk0PzbarbiWAGK5jRnvIoWZaGVKP&#xA;G5NCSVr7VxjEGddFnOQhfIoD83vzL83eUfOuiR6VGLrRUs5dQ1yxEatK9tDKEleNiOSmNG59QNt9&#xA;sOOAIKMuQxIrkyD8xPPN3Y+XPLWseXLuNrfWdX063+sBVkWS0uyeVOQNOS036jIwjuQWU50AR3pJ&#xA;fav+Y2u/mz5g8r6J5kj0PTtJtLS5iDafDeljOilhV2iYfEa9TkgIiIJDEmRkQDTL/LHl/wDMDT9S&#xA;M+v+bY9bsTGyizTTIrMiQkcX9VJZDsAdqd8hIjoGyMZDmbee/ljc/nD558nWvmP/ABxDp31l5U+q&#xA;/oe3n4+lI0defqRVrxr9nLJ8MTVNWPjkLv7E3/MfWvzA8h/lTqeqTeYI9W12K6hNvqAsYrZUhlkj&#xA;jMRhDSo37R5Hx9sEAJS5MshlGN3uqeYNI/OjQ9EvtZh88WWotp0Et01lc6TDbRSLChdlMqTMV2X+&#xA;0YAYk1SyEwLv7FG+/NHW73yV+XfmHTwtjL5m17TtP1OHiJF9GdpUnROYJAZovhPUDCICyO4IOQ0D&#xA;3lAebvzb8xeWPzcksrsrJ5HtIbMapSNedqb2qJclwOXBZQA1T0OwrTDHGDHzRLKRLyZh5y81atp3&#xA;nbyNplhOo0/Xbi8jv14q/qJDbiSPixBK/Fv8OQjEEFslIggd7H/8T/mH568063pnk7Ubfy75e8v3&#xA;DWFxrUlst7cXF4n94kUUhWMJGf4HetBLhjEC9yWHFKRIGwCc+Vk/N3SfNC6V5imt/Mnl2eFnXzDF&#xA;FFYzwTKNklt1ejB+g4A9a16jIy4SNtiyjxA0dwzO8/3tsP8AjI//ACabK21JfPWoXqWVpo2mzG21&#xA;HXZ/qiXamjW1uqNLdXIJ2DRwI3An9srkojqwmene8r85eV9MsPNUckuowx6Zo1pFJolmjNbJaKkc&#xA;kkUUUxZ1+s3TxyM87D92q89m9Mi6MtmmcaKL0LSvM3miCe20aOPTPLomBZFkIs6rAo5W7iKK7e5W&#xA;dnlkaTo/ws3OPASBz5pAJ5ckTF5B8yA3d/oGt2+qahZXga5i9E2i/pOCVZZrllWRllnkQmJlLRoV&#xA;anw9ceMdQvAehYhqxj1G2urDVIrcXztezzC7mSKe5nW4MECtaRxQRx3scUwCyI3x8eD/ALqSMmY2&#xA;YHfmz/yrZat5XtdA1661KPVrbVvQ0/Vr6IMBLBcELpd5IWPxSozrA77ckcV+wMrkQbDbEEUfx5JP&#xA;+TPnPQvJWjz/AJeebr2HQ9Y0G5uBE98y28NzbTStKk0UsnFGDcz1PSlPY5ImR4gxxTERwnamUR/m&#xA;dpfmz/E2m6BbSXuj6dpsxl8wqaWr3LI1beOoBchfi5Db8C0OCqtn4gldJL+W3la281f844af5fuK&#xA;BdQsbiOORtwkouJGik/2Eiq30ZKcqnbHHHix0xr8utW1b8xPNnlix1eGRE/L21eTW1kH29YSRrWA&#xA;P4sqQ+rUftchkpgRBrqwgTIi/wCH72X3f/rTll/4CZ/6jpMiP7v4th/vPgkH5H+f/JOg+X9bsda1&#xA;uz068Ou38gt7iZI34MyANRj0NDkssCSKHRhhmADZ6vaNI1jS9Y0+LUtKuor2wn5ejdQMHjfgxRuL&#xA;DY0ZSMoIpyAQeT5t8t6N+T995p8+Sed9TjsdQXzJqK20b30loTD6xNeCOgb4q75kyMqFdziRECTf&#xA;ezO/h/K6w/KrzvYeR9Tivuemzz3kaXjXjLSIorfGzlRkBxcQtsPCInhX6/omo6Z5R8n/AJk+XofU&#xA;1ny7pVouqWq7G90poEM8Lf5UYq6eG/U0xBsmJ6rIUBIdGG6Zp+oa3+Rset6JbvezaL5pl1+G0UHn&#xA;NFBM5ZQo3rwl5UG+2TJqdHuawLhY77egeZvzE/LbzX5ds7+3/MGTy0kRMssdlcJBeklN4pYCHlPH&#xA;/JXr0rlcYSB5W2ynGQ50wbV7/XL/AP5xh81Xeq3d7fpLqKHS73UeXrS2Iv7UQP8AGAaNQ+1a5YAP&#xA;EDWSTjNvRfMcUUv59eWYpUWSKTRNQWSNgGVlZgCCDsQRlUfoPvbZfWPc8x86W2o+StY0f8vpUkl8&#xA;u3PmKw1byrck1EUPrkXNmx/4rklDL7Gp65bH1Di600z9JEel7Jj5n038ub/89/NKeeL5LG0SxsTZ&#xA;u929nykMSchyRk5fD2wRMuAUykImZ4mefltZfkrpWuunk3WIbrVryFojbi/kumaNSJG4o7v04VqM&#xA;rmZEbtmMQB2LyD8otB/Iu88i2c/mzV4rTXGknE8DajLbEKJWEf7pZFAqlO2XZDO9mjEIcO53Zb+a&#xA;g8hQfkFrFh5Lv47/AE22u7YymO5a6KSSXCMQzsztv4VyGO+Pdnk4eA0i/wA2Pyr1HS/K51ay13zB&#xA;r+nWEqT67oV/qdxMl1YKazKvHjRlXf5V8MceSzVAJyY6F2SmXn+78vXflb8rLjy4EXQ381aJ+j0j&#xA;FFSICUBKb0ZacWB3rWuRhdyvuLKZFRrlYRkOkafrP51edNK1GET2N7oNlBcRN0KOzA/I9wexxuoj&#xA;3rVzI8mC6Zc65pP5p+Rvy/1znPP5Zvbw6XqTdLnTJ7Ui1J/yoxGUb5U7ZYaMSR1axYkInoyj8v8A&#xA;zNpP5e+bPNnlLzZcJpP6S1e41rR9Suj6VtcwXYT4RM1Iw0YRa1PWo7ZCcTIAhnCQiSD3pRY6nT8z&#xA;fLmn+VPPWr+bI5Lt5dctvWNzZQWgUkF5IlEdOW32j+rCR6TYpiD6hRJe7Xn+9th/xkf/AJNNmO5T&#xA;DfOGoaHD5xgj11DLp7aTPZiHgZBI2p3MULIVH84gC/TTvvZEGtmqRF7sB1ll057jTtMc2VtBLe3F&#xA;rAPq8SW8ulLJa2MkU0pNw5RLACSGH/dbFnbixDWDdrO3JlHmHzlf+S/MOl+VNMW0+oGCzh0zTvRl&#xA;luZhK8kTu8wkjSMq0ShRwcszVJG5WAjxC2cpcJoPPPIf5l69owvTcutvp91PbxyatcxeqtSs7mcR&#xA;RyR+pLOEYsxYfDGSRUUNs4AtUMhDMPOFxqKabY+YJpI7HUr/AE6HVrk28kUFoLmyuLe3inkF6rxM&#xA;Vh1Ln6b/ABFo0VW5KjCEe5nLvQsl7oKfl/NJKJp9av8ATdZj0rVfReBFhtWbUYvXj5cIvSdlMan4&#xA;loQv7WNG1scPzex6noeiaqEGp6fbX4jqYxcwxzca9ePMNTKQSG8gHmr29jZW1qLS2t4oLRQVW3jR&#xA;UjCnqAigLTBa0ut7a3toVgt4khhTZIo1CKN67KKAYpWwWVnbySyW8EcMk7c53jRVLt/M5A+I798b&#xA;WmzaWpuhdmGM3QT0xccR6gStePOnLjXemK0g28teXHYu+lWbMxJZjbxEknqSeOHiKOEI22tba1gW&#xA;C1hSCBK8IolCIKmpoq0AqTXAlBy+XPL0sryy6XaSSyMWkkaCJmZmNSSStSScNlHCF8Oh6JAkqQaf&#xA;bRJOvCZUhjUOv8rADcexxsrQRaxRJEIkRViVQqxgAKFAoAB0pTAlTtLOzs4fRtII7eEEkRxIqLU9&#xA;TRQBjagICXyn5Wmuzey6NYyXhbmblraFpS383Mryr9OHiLHhHcmFzaWtzA1vcwpPbtTlDIodDQ1F&#xA;VYEbEYGVNta2zXCXLQobiNSqTFQXVT1AbqAcVWXNjZXTRtc28U7QtzhMiK5Rv5l5A0O3bG0Uo3Wh&#xA;6JdzGe60+2uJmoGllhjdjQUFWYE4bK0HWuh6JaTCe10+2t5lqFlihjRhUUNGUA42VoKP+F/LX/Vp&#xA;sv8ApHi/5px4ivCEni1z8vzA1pawRXEU3qyPZ2tjLOX+q3BtZGMMMTk+nOpWvH8MlRY3FHw+cvLd&#xA;z5fuNe9eRdEhg+sS3k9tcRRtAyc/UT1Y0MiFN6oCMHCbpPGKvosGqeS4ra/VTapZ+XWM96yxD0LW&#xA;SNTIzcgvpiRBUsFPJe9K40fmtj5NWvm3yXNqGl/V723+v+YIGl0x+PGS5ihAZgGKg1Sv2G3Hhsce&#xA;E/JeIfNCXPnfyD9Z+tzTLLNZQi4kvRaTyrbQO0iCSSdYmWFCYpN2YdDh4Sjjijr7UPJ2q6fI9+La&#xA;/sYL1NPcXEImRbx50tkj4urbmaRVqNt+tMABCSQUH5Z8x+Qy1vY6Asdml+XazSOzls4bgxglzCzR&#xA;RRylVUk8SdhhlE9URlHon15/vbYf8ZH/AOTTZBm84/OrSb+V9NvbCNWubiObTYi4qPrDPFd2wIBQ&#xA;nmbSSFRyALSAHrluItOUMd8wPz1GW8likuLTUIpL6aOCWxnhgs/QMeswQtO4jE4cOryJMpCyj7XH&#xA;jkh+P0MJfj9KbLZaZ5k1PSrnU47W680WMKW6rdySWbXSwMXiurG4iDSQzxu7GWHjyV9mpxR8F17m&#xA;VAnfmo6rp/lXzDpDfWdKXRdPt4bdZLvVp50jikCn0yloaJc3SLVPiO9eJLj4SgkFBAIS7zXqaSFY&#xA;/qt5FpdrDawJGixG6g0qCUxGVXmEjR3jXIjk4CMuFjjDGORwMlEIkVHUdL1OWez8uTl3uZbRtPvh&#xA;Lxlc3uvz+tdj1SOTGCz9VuYH2UIDbspQev42Ug8vxu97zHcl2KuxV2KuxV2KuxV2KuxV2KuxV2Ku&#xA;xV2KuxV2KuxV2KsQ8rfl9+gdWj1D6/8AWfThv4PS9H06/X9SfUOXLm393z9Ppv126ZOU7DXGFFVu&#xA;PIvrfliPI317jTSY9I/SPpV/u4BD6vo8+/GvHn9OPH6rTwenhS+X8rk+pNoVrqb23lGS6ju5NHCM&#xA;0q8WaV4YroyBlikn4SFWVjsyg8Wop4+vVHh9OiET8mdPXVJ521KZ9PMV2unWxUm4s7i8ntrozxXJ&#xA;cnklzatKvwdXO9BQviI8LdU0T8ndJtml/TV0+tRTWlpay27CS3hka0luJjJNDHL6UodrnZHUheO3&#xA;XE5D0UYh1Rp/L28F7NGmrBdBn1aPXJdP+rfvzcxTpchBc+px9L14lbj6XLtywcaeD5KPln8qrHQb&#xA;rQryG8ae70iK4hmaVGeOZbip5xRvI4t5F6c06qWUg12Msl2scdUy+8/3tsP+Mj/8mmytsUtf0Sz1&#xA;zSLnS7zkIbhRSSM8ZI5EYPHLG3Z43UOp8RhBookLFPEp9IGjPc+WdYtecE8kt3PaRKq/G1eeo6YG&#xA;Do6yBmEtsQeJYo9YiDl93uHHqtiqHRNYvDcppTQ6lZm6rfQ2UNv9Ugja0azZ59GnWN1nBiikiDCZ&#xA;ax0BVWarY6/j4rR6fj4Nw6Br1pMtwmk/U0EnpS3Vna2+mTxQJwpcLfTR2nB535+pHXgo48QaEO2F&#xA;4SghJpmkS3Nybmxu/MenLLKLmGNDYWcs116sjXl1HGPVuEZv3CenwUhBxZgrYefuRsPe9G/Lny3q&#xA;zJZ6xrklxIbKB7fRoLwMJwsp5T3k6O0jJLcEfDGWJjj+GtS2VTkOQbccTzLP8rbXYq7FXYq7FXYq&#xA;7FXYq7FXYq7FXYq7FXYq7FXYq7FXYq7FXYq7FXYq7FXYq7FVrenyTlTnU+nWla03p9GKrsVSDzr/&#xA;AIP/AEOP8U+l9S9Rfq/Pl63r/sfVvS/fet/L6Xx+GSjd7MZ1W7xTzJ9Y+rT/AFT0/wBBfW4frX+I&#xA;uf1r1/qj/VuP6K/0nn9Xp6f1n46ca/s5fH8U48vs8/2Inzp+lP03Y+t/h79J+ha/Z/SXGnJPS9Pj&#xA;8HKvp8PU9u3LBHl1Wd30ZJ+XP/Kvvrtl9b9b9N8h+jP0h9X+qepx2+o/U/8AQfV4+H7+n2u+RnxM&#xA;4cPxeu5S3v8A/9k=</xmpGImg:image>
               </rdf:li>
            </rdf:Alt>
         </xmp:Thumbnails>
      </rdf:Description>
      <rdf:Description rdf:about=""
            xmlns:xmpMM="http://ns.adobe.com/xap/1.0/mm/"
            xmlns:stRef="http://ns.adobe.com/xap/1.0/sType/ResourceRef#"
            xmlns:stEvt="http://ns.adobe.com/xap/1.0/sType/ResourceEvent#">
         <xmpMM:InstanceID>xmp.iid:3B5FBDA8A044E411A66B8B3C2682DEC8</xmpMM:InstanceID>
         <xmpMM:DocumentID>xmp.did:3B5FBDA8A044E411A66B8B3C2682DEC8</xmpMM:DocumentID>
         <xmpMM:OriginalDocumentID>uuid:5B20892493BFDB11914A8590D31508C8</xmpMM:OriginalDocumentID>
         <xmpMM:RenditionClass>proof:pdf</xmpMM:RenditionClass>
         <xmpMM:DerivedFrom rdf:parseType="Resource">
            <stRef:instanceID>xmp.iid:3A5FBDA8A044E411A66B8B3C2682DEC8</stRef:instanceID>
            <stRef:documentID>xmp.did:3A5FBDA8A044E411A66B8B3C2682DEC8</stRef:documentID>
            <stRef:originalDocumentID>uuid:5B20892493BFDB11914A8590D31508C8</stRef:originalDocumentID>
            <stRef:renditionClass>proof:pdf</stRef:renditionClass>
         </xmpMM:DerivedFrom>
         <xmpMM:History>
            <rdf:Seq>
               <rdf:li rdf:parseType="Resource">
                  <stEvt:action>saved</stEvt:action>
                  <stEvt:instanceID>xmp.iid:3A5FBDA8A044E411A66B8B3C2682DEC8</stEvt:instanceID>
                  <stEvt:when>2014-09-25T16:28:16+05:30</stEvt:when>
                  <stEvt:softwareAgent>Adobe Illustrator CS5</stEvt:softwareAgent>
                  <stEvt:changed>/</stEvt:changed>
               </rdf:li>
               <rdf:li rdf:parseType="Resource">
                  <stEvt:action>saved</stEvt:action>
                  <stEvt:instanceID>xmp.iid:3B5FBDA8A044E411A66B8B3C2682DEC8</stEvt:instanceID>
                  <stEvt:when>2014-09-25T16:28:24+05:30</stEvt:when>
                  <stEvt:softwareAgent>Adobe Illustrator CS5</stEvt:softwareAgent>
                  <stEvt:changed>/</stEvt:changed>
               </rdf:li>
            </rdf:Seq>
         </xmpMM:History>
      </rdf:Description>
      <rdf:Description rdf:about=""
            xmlns:illustrator="http://ns.adobe.com/illustrator/1.0/">
         <illustrator:StartupProfile>Basic CMYK</illustrator:StartupProfile>
      </rdf:Description>
      <rdf:Description rdf:about=""
            xmlns:xmpTPg="http://ns.adobe.com/xap/1.0/t/pg/"
            xmlns:stDim="http://ns.adobe.com/xap/1.0/sType/Dimensions#"
            xmlns:xmpG="http://ns.adobe.com/xap/1.0/g/">
         <xmpTPg:HasVisibleOverprint>False</xmpTPg:HasVisibleOverprint>
         <xmpTPg:HasVisibleTransparency>False</xmpTPg:HasVisibleTransparency>
         <xmpTPg:NPages>1</xmpTPg:NPages>
         <xmpTPg:MaxPageSize rdf:parseType="Resource">
            <stDim:w>450.000000</stDim:w>
            <stDim:h>72.000000</stDim:h>
            <stDim:unit>Pixels</stDim:unit>
         </xmpTPg:MaxPageSize>
         <xmpTPg:PlateNames>
            <rdf:Seq>
               <rdf:li>Cyan</rdf:li>
               <rdf:li>Magenta</rdf:li>
               <rdf:li>Yellow</rdf:li>
               <rdf:li>Black</rdf:li>
            </rdf:Seq>
         </xmpTPg:PlateNames>
         <xmpTPg:SwatchGroups>
            <rdf:Seq>
               <rdf:li rdf:parseType="Resource">
                  <xmpG:groupName>Default Swatch Group</xmpG:groupName>
                  <xmpG:groupType>0</xmpG:groupType>
               </rdf:li>
            </rdf:Seq>
         </xmpTPg:SwatchGroups>
      </rdf:Description>
      <rdf:Description rdf:about=""
            xmlns:pdf="http://ns.adobe.com/pdf/1.3/">
         <pdf:Producer>Adobe PDF library 9.90</pdf:Producer>
      </rdf:Description>
   </rdf:RDF>
</x:xmpmeta>
                                                                                                    
                                                                                                    
                                                                                                    
                                                                                                    
                                                                                                    
                                                                                                    
                                                                                                    
                                                                                                    
                                                                                                    
                                                                                                    
                                                                                                    
                                                                                                    
                                                                                                    
                                                                                                    
                                                                                                    
                                                                                                    
                                                                                                    
                                                                                                    
                                                                                                    
                                                                                                    
                           
<?xpacket end="w"?>
	</metadata>
<g>
	<path fill="#00243A" d="M46.141,19.259c-2.546,0-4.526,0.813-5.941,2.44c-1.415,1.628-2.122,3.858-2.122,6.687
		c0,2.804,0.74,5.055,2.213,6.757c1.474,1.701,3.466,2.552,5.981,2.552c3.221,0,5.642-1.585,7.264-4.754l2.546,1.267
		c-0.945,1.966-2.276,3.466-3.991,4.492c-1.712,1.026-3.701,1.541-5.965,1.541c-2.314,0-4.327-0.479-6.014-1.438
		c-1.694-0.953-2.983-2.325-3.87-4.103c-0.888-1.776-1.328-3.89-1.328-6.315c0-3.644,0.987-6.496,2.973-8.563
		c1.979-2.061,4.725-3.095,8.222-3.095c2.452,0,4.497,0.472,6.14,1.426c1.644,0.956,2.852,2.362,3.625,4.235l-2.96,0.972
		c-0.531-1.328-1.391-2.345-2.57-3.047C49.163,19.612,47.758,19.259,46.141,19.259z"/>
	<path fill="#00243A" d="M60.438,39.916V17.067h3.118v22.849H60.438z"/>
	<path fill="#00243A" d="M79.403,39.916h-3.229l-9.387-22.849h3.279l6.369,16.086l1.371,4.039l1.37-4.039l6.334-16.086h3.279
		L79.403,39.916z"/>
	<path fill="#00243A" d="M92.019,39.916V17.067h3.118v22.849H92.019z"/>
	<path fill="#00243A" d="M100.966,39.916V17.067h3.118v20.319h11.619v2.529L100.966,39.916L100.966,39.916z"/>
	<path fill="#00243A" d="M127.604,39.916V17.067h17.45v2.528h-14.332v7.331h13.349v2.498h-13.349v7.962h15.001v2.529L127.604,39.916
		L127.604,39.916z"/>
	<path fill="#00243A" d="M164.82,39.916l-12.308-19.457l0.082,1.573l0.082,2.706v15.179h-2.772v-22.85h3.624l12.438,19.59
		c-0.129-2.121-0.196-3.654-0.196-4.605V17.067h2.805v22.849H164.82z"/>
	<path fill="#00243A" d="M172.976,28.385c0-3.708,1.005-6.579,3.006-8.608c2.001-2.031,4.816-3.046,8.44-3.046
		c2.547,0,4.612,0.427,6.2,1.281c1.592,0.856,2.815,2.222,3.675,4.103l-2.973,0.871c-0.655-1.299-1.554-2.241-2.702-2.839
		c-1.149-0.598-2.578-0.892-4.285-0.892c-2.65,0-4.683,0.797-6.088,2.39c-1.404,1.595-2.106,3.841-2.106,6.737
		c0,2.887,0.743,5.166,2.239,6.834c1.494,1.67,3.55,2.507,6.184,2.507c1.503,0,2.903-0.228,4.203-0.682
		c1.299-0.452,2.353-1.07,3.157-1.847v-4.117h-6.869v-2.594h9.748v7.878c-1.215,1.233-2.711,2.183-4.483,2.862
		c-1.77,0.676-3.687,1.012-5.755,1.012c-2.407,0-4.48-0.474-6.219-1.428c-1.74-0.951-3.071-2.326-3.988-4.111
		C173.442,32.912,172.976,30.806,172.976,28.385z"/>
	<path fill="#00243A" d="M200.383,39.916V17.067h3.119v22.849H200.383z"/>
	<path fill="#00243A" d="M224.25,39.916l-12.308-19.461l0.082,1.572l0.084,2.706v15.179h-2.773V17.067h3.625l12.434,19.59
		c-0.126-2.121-0.193-3.654-0.193-4.605V17.067h2.806v22.849H224.25z"/>
	<path fill="#00243A" d="M233.471,39.916V17.067h17.445v2.528h-14.33v7.331h13.354v2.498h-13.354v7.962h15.004v2.529L233.471,39.916
		L233.471,39.916z"/>
	<path fill="#00243A" d="M255.766,39.916V17.067h17.446v2.528H258.88v7.331h13.354v2.498H258.88v7.962h15.001v2.529L255.766,39.916
		L255.766,39.916z"/>
	<path fill="#00243A" d="M294.316,39.916l-5.972-9.487h-7.168v9.487h-3.118V17.067h10.819c2.597,0,4.587,0.576,6.002,1.727
		c1.41,1.149,2.116,2.751,2.116,4.807c0,1.699-0.502,3.125-1.495,4.28c-0.999,1.153-2.373,1.883-4.124,2.187l6.53,9.844
		L294.316,39.916L294.316,39.916z M293.867,23.634c0-1.329-0.46-2.343-1.368-3.04c-0.91-0.697-2.215-1.045-3.921-1.045h-7.396v8.432
		h7.527c1.641,0,2.913-0.382,3.811-1.141C293.418,26.08,293.867,25.007,293.867,23.634z"/>
	<path fill="#00243A" d="M302.542,39.916V17.067h3.121v22.849H302.542z"/>
	<path fill="#00243A" d="M326.402,39.916l-12.301-19.461l0.084,1.572l0.082,2.706v15.179h-2.772V17.067h3.623l12.438,19.59
		c-0.129-2.121-0.195-3.654-0.195-4.605V17.067h2.806v22.849H326.402z"/>
	<path fill="#00243A" d="M334.574,28.385c0-3.708,0.999-6.579,2.999-8.608c2.002-2.031,4.813-3.046,8.44-3.046
		c2.539,0,4.607,0.427,6.201,1.281c1.59,0.856,2.813,2.222,3.668,4.103l-2.968,0.871c-0.651-1.299-1.554-2.241-2.699-2.839
		c-1.149-0.598-2.579-0.892-4.289-0.892c-2.653,0-4.679,0.797-6.081,2.39c-1.404,1.595-2.106,3.841-2.106,6.737
		c0,2.887,0.745,5.166,2.237,6.834c1.492,1.67,3.551,2.507,6.187,2.507c1.499,0,2.903-0.228,4.202-0.682
		c1.302-0.452,2.352-1.07,3.16-1.847v-4.117h-6.862v-2.594h9.742v7.878c-1.218,1.233-2.71,2.183-4.48,2.862
		c-1.77,0.676-3.688,1.012-5.754,1.012c-2.407,0-4.479-0.474-6.22-1.428c-1.737-0.955-3.071-2.326-3.988-4.111
		C335.037,32.912,334.574,30.806,334.574,28.385z"/>
</g>
<rect x="367.163" y="4.135" fill="#B9B9B9" width="0.967" height="61.855"/>
<g>
	<g>
		<path fill="#00243A" d="M412.916,0.194c0.753,0,1.5,0,2.262,0c10.798,0.471,18.137,4.792,23.99,10.227
			c2.938,2.707,5.279,6.084,7.191,9.899c1.938,3.812,3.253,8.274,3.641,13.409c0,1.577,0,3.162,0,4.734
			c-0.892,10.128-4.938,17.464-10.508,22.994c-5.546,5.54-12.899,9.592-23.063,10.468c-1.586,0-3.175,0-4.753,0
			c-7.747-0.614-13.918-3.217-18.814-6.842c-1.652-1.216-3.277-2.506-4.605-3.949c-5.404-5.878-9.759-13.166-10.222-23.93
			c0-0.75,0-1.502,0-2.254c0.032-0.008,0.041-0.029,0.041-0.08c0.56-10.814,4.841-18.484,10.547-24.176
			C394.373,4.97,402.07,0.812,412.916,0.194z M405.569,2.421c-7.007,1.762-12.194,5.276-16.517,9.573
			c-2.904,2.915-5.23,6.302-6.988,10.366c-1.646,3.834-3.053,8.96-2.813,14.496c0.137,2.814,0.43,5.297,1.021,7.634
			c0.572,2.284,1.356,4.37,2.291,6.389c1.818,3.851,4.324,7.41,7.283,10.121c6.07,5.562,13.467,9.785,24.969,9.785
			c5.369,0,10.178-1.479,14.078-3.302c4.021-1.864,7.28-4.377,10.145-7.25c2.878-2.869,5.213-6.381,6.995-10.362
			c1.809-4.084,2.828-8.731,2.828-14.521c0-5.36-1.522-10.358-3.307-14.022c-3.777-7.784-9.601-13.551-17.667-17.076
			c-3.818-1.66-9.047-3.095-14.584-2.833C410.499,1.553,407.94,1.822,405.569,2.421z"/>
		<path fill="#00243A" d="M415.862,4.856c0.499,0.04,1.209-0.139,1.181,0.433c-0.373,0.034-0.894-0.087-1.045,0.146
			c0.035,0.934-0.025,1.76-0.069,2.619c-0.138,0.007-0.127,0.178-0.288,0.178c-0.063-0.064-0.108-0.121-0.18-0.178
			c0-0.777,0.102-1.685,0.077-2.686c-0.015-0.079-0.085-0.079-0.104-0.141c-0.671,0.044-1.911-0.221-1.549,0.54
			c0.788-0.27,1.291,0.199,1.372,0.859c-0.114,0.651-0.203,1.308-0.835,1.432c0.008-0.057-0.024-0.07-0.073-0.07
			c0.008-0.411,0.302-0.533,0.463-0.78c0.063-0.379-0.081-0.549-0.1-0.827c-0.144-0.29-0.664-0.332-0.827-0.04
			c-0.063,0.662,0.131,1.573-0.144,2.008c-0.202,0.033-0.172-0.17-0.335-0.177c0-0.171,0-0.342,0-0.508
			c-0.39-0.145-0.657,0.108-1.113-0.08c-0.391-0.233-0.481-0.941-0.271-1.468c0.146-0.167,0.426-0.221,0.533-0.432
			c0.239,0,0.472,0,0.73,0c0.073-0.071,0.025-0.245,0.033-0.365c-0.58-0.087-1.307-0.035-1.812,0.079
			c-0.082-0.011-0.033,0.136-0.133,0.107c0.084,0.917,0.24,1.772,0.273,2.723c-0.104,0.018-0.142,0.118-0.216,0.177
			c-0.158,0-0.136-0.169-0.28-0.177c-0.031-0.893-0.127-1.7-0.178-2.586c-0.07-0.219-0.431-0.12-0.688-0.136
			c-0.122,0.315,0.103,0.578,0.049,0.963c0.136,0.267,0.257,0.863,0.087,1.221c-0.128-0.025-0.202,0.012-0.21,0.103
			c-0.483-0.257-0.886-0.58-0.899-1.287c0.146-0.12,0.233-0.29,0.463-0.322c0.03-0.241-0.032-0.391-0.105-0.51
			c-0.381-0.043-0.64,0.031-0.762,0.257c0.194,0.087,0.021,0.536,0.225,0.606c0.06,0.364,0,0.844,0.181,1.078
			c-0.063,0.436,0.268,0.955-0.181,1.081c-0.614-0.607-0.33-2.119-0.828-2.84c-0.179,0.054-0.32,0.107-0.396,0.254
			c0.186,0.887,0.424,1.731,0.546,2.681c-0.089,0.041-0.174,0.08-0.182,0.178c-0.146,0-0.103-0.162-0.288-0.099
			c-0.34-0.814-0.255-2.048-0.689-2.765c-0.238-0.051-0.309,0.071-0.43,0.144c0.09,0.978,0.447,1.683,0.455,2.72
			c-0.06-0.008-0.066,0.037-0.073,0.083c-0.31,0-0.43-0.19-0.39-0.539c-0.43,0.115-0.601,0.51-1.126,0.539
			c-0.082-0.012-0.043,0.104-0.105,0.104c-0.431-0.015-0.655-0.219-0.813-0.503c0-0.186,0-0.365,0-0.535
			c-0.088-0.133-0.251-0.169-0.363-0.257c-0.218-0.914,0.566-0.875,0.988-1.145c-0.25-0.092-0.607,0.008-0.745,0.146
			c-0.421-0.018-0.642,0.152-0.902,0.282c-0.056,0.293,0.118,0.365,0.077,0.647c0.249,0.335,0.364,0.78,0.462,1.258
			c0.128,0.286,0.283,0.528,0.289,0.936c-0.057-0.02-0.069,0.024-0.077,0.072c-0.31,0.089-0.327-0.236-0.456-0.464
			c-0.123-0.203-0.279-0.519-0.287-0.891c-0.266-0.405-0.334-0.96-0.568-1.364c-0.245,0.012-0.378,0.116-0.479,0.249
			c0.101,0.242,0.115,0.487,0.223,0.723c0.033,0.083,0.144,0.137,0.18,0.216c0.09,0.219,0.094,0.473,0.178,0.686
			c0.134,0.336,0.435,0.613,0.363,1.066c-0.066-0.008-0.073,0.037-0.083,0.078c-0.417,0.029-0.372-0.407-0.562-0.609
			c-0.53,0.233-0.483,1.029-1.014,1.263c0-0.146-0.161-0.122-0.231-0.217c0.056-0.352,0.303-0.498,0.41-0.788
			c0.025-0.122-0.136-0.051-0.107-0.179c-0.527-0.024-0.562-0.543-0.825-0.827c0.031-0.31-0.181-0.397-0.212-0.638
			c-0.219,0.028-0.446,0.028-0.545,0.178c-0.138-0.046-0.219-0.138-0.292-0.253c0.1-0.017,0.13-0.087,0.114-0.221
			c0.534-0.12,0.851-0.46,1.399-0.571c0.074-0.241-0.266-0.194-0.466-0.324c-0.141-0.087-0.182-0.262-0.334-0.278
			c-0.219-0.046-0.38,0.057-0.566,0.17c-0.18-0.067-0.374-0.094-0.504-0.212c0.098-0.211,0.371-0.24,0.504-0.432
			c0.779-0.057,0.963,0.47,1.629,0.546c0.034,0.095,0.112,0.135,0.183,0.207c0.313,0.039,0.544-0.024,0.667-0.176
			c-0.161-0.26-0.559-0.272-0.667-0.577c-0.329-0.049-0.482,0.076-0.649,0.183c-0.881-0.107-0.1-0.868,0.605-0.643
			c0.438,0.298,0.946,0.536,1.358,0.827c1.129-0.358,2.202-0.756,3.423-1.005c-0.119-0.119-0.204-0.364-0.389-0.468
			c-0.041-0.018-0.112,0.024-0.137,0c-0.115-0.074-0.146-0.229-0.368-0.253c-0.281-0.03-0.869,0.273-0.836-0.287
			c0.973-0.568,1.643,0.41,2.313,0.826c0.333,0.041,0.521-0.087,0.684-0.216c-0.008-0.298-0.163-0.531-0.107-0.825
			c0.017-0.058,0.14-0.142,0.188-0.254c0.089-0.26,0.226-0.356,0.5-0.432c0.133,0.124,0.304,0.028,0.465,0.076
			c0.076,0.016,0.348,0.103,0.503,0.179c0.024,0.008,0.077,0.154,0.146,0.177c0.134,0.053,0.124,0.076,0.256,0.139
			c0.056,0.041,0.149,0.016,0.187,0.041c0.056,0.05,0.076,0.17,0.133,0.219c0.17,0.113,0.454,0.13,0.554,0.358
			c0.64-0.066,1.337-0.083,1.941-0.221c-0.068-0.306-0.201-0.601-0.104-0.891c0.139-0.543,0.893-0.644,1.492-0.466
			c0.073,0.177,0.25,0.262,0.471,0.287C415.104,4.172,415.554,4.451,415.862,4.856z M414.887,4.425
			c-0.358-0.341-0.689-0.696-1.479-0.57c-0.177,0.302-0.096,0.803,0.115,1.001c0.551,0,1.103,0,1.653,0
			C415.239,4.662,415.022,4.555,414.887,4.425z M409.242,4.281c-0.161,0-0.311,0-0.471,0c-0.27,0.113-0.221,0.544-0.212,0.938
			c0.544,0.163,1.314,0.004,1.761-0.184C410.054,4.682,409.614,4.521,409.242,4.281z M412.545,6.144
			c-0.036,0.333-0.258,0.475-0.182,0.895c0.13,0.083,0.255,0.14,0.279,0.289c0.346,0.068,0.36-0.207,0.654-0.182
			c0.087-0.241,0.11-0.557,0.087-0.937C413.28,6.001,412.771,5.982,412.545,6.144z M405.569,7.225
			c-0.064,0.179-0.333,0.144-0.536,0.179c0.024,0.087-0.017,0.126-0.104,0.104c0.032,0.086,0.089,0.149,0.18,0.182
			c0-0.046-0.01-0.1,0.032-0.107c0.364,0.016,0.906-0.278,0.832,0.281c-0.174,0.051-0.248,0.196-0.46,0.18
			c-0.016,0.221-0.179,0.281-0.104,0.576c0.188,0,0.366,0,0.553,0c0.031-0.086,0.087-0.132,0.126-0.213
			c0.367-0.072,0.451-0.413,0.615-0.678c-0.085-0.308-0.2-0.578-0.179-0.968c-0.217,0.037-0.077-0.249-0.105-0.362
			c-0.119,0-0.265,0-0.37,0C405.909,6.714,406.213,7.312,405.569,7.225z M401.569,8.05c0.036,0.577,0.313,0.917,0.546,1.295
			c0.381,0.038,0.566-0.112,0.752-0.25c-0.271-0.34-0.326-0.904-0.565-1.3C401.919,7.744,401.774,7.922,401.569,8.05z"/>
		<path fill="#00243A" d="M421.51,4.784c0.109,0.763-0.869,0.588-0.751,0.042C420.82,4.53,421.354,4.468,421.51,4.784z"/>
		<path fill="#00243A" d="M419.184,5.22c0.974-0.063,1.545,0.318,2.437,0.357c0.162,0.108,0.37,0.182,0.648,0.182
			c0.417,0.162,0.849,0.318,1.405,0.354c0.235,0.202,0.71,0.173,0.942,0.403c0.587,0.041,0.95,0.302,1.471,0.43
			c0.565,0.184,0.943,0.545,1.587,0.64c-0.008,0.163,0.232,0.087,0.248,0.215c0.813,0.192,1.314,0.678,2.094,0.899
			c0.291,0.252,0.721,0.376,1.013,0.642c0,0.118,0,0.237,0,0.356c-0.389,0.047-0.485-0.198-0.765-0.246
			c-0.387,0.187-0.36,0.778-0.72,0.998c-0.112,0.615-0.567,0.915-0.763,1.471c-0.209,0.028-0.285-0.042-0.364-0.146
			c0.087-0.281,0.117-0.602,0.364-0.722c0.09-0.349,0.31-0.559,0.463-0.822c-0.146-0.231-0.495-0.26-0.718-0.431
			c-0.068,0.26-0.146,0.481-0.212,0.722c-0.281,0.036-0.445-0.043-0.656-0.072c-0.212-0.403-0.115-1.083,0.188-1.295
			c0.525-0.087,0.596,0.301,1.041,0.29c0.058,0.205,0.338,0.181,0.431,0.349c0.207-0.152,0.408-0.315,0.4-0.679
			c-0.496-0.396-1.146-0.641-1.813-0.898c-0.479,0.814-0.835,1.739-1.29,2.582c-0.202,0.016-0.368-0.017-0.343-0.221
			c0.337-0.876,0.846-1.605,1.105-2.58c-0.268-0.062-0.342-0.328-0.683-0.32c-0.372,0.801-0.748,1.598-0.969,2.544
			c-0.084,0.071-0.198,0.137-0.394,0.105c0.008-0.063-0.033-0.067-0.084-0.079c-0.019-0.313,0.1-0.49,0.179-0.716
			c-0.118,0.054-0.396,0.102-0.577,0.079c-0.084-0.021,0-0.061-0.104-0.108c-0.086-0.035-0.203,0.021-0.241,0
			c-0.064-0.028-0.07-0.149-0.113-0.182c-0.051-0.025-0.136,0.029-0.181,0c-0.149-0.062-0.337-0.448-0.36-0.565
			c-0.042-0.179,0.031-0.374,0-0.577c-0.089-0.087-0.065,0.057-0.179,0.037c-0.09-0.166-0.317-0.166-0.292-0.431
			c-0.146,0.141-0.396,0.174-0.574,0.287c0.242,0.41,0.301,0.983,0.574,1.361c-0.046,0.104-0.187,0.121-0.282,0.178
			c-0.008-0.16-0.243-0.095-0.275-0.21c-0.235-0.809-0.606-1.445-0.729-2.376c0.138-0.207,0.365-0.04,0.55,0
			c0,0.134,0,0.267,0,0.403c0.455,0.396,0.697-0.403,0.762-0.859c-0.284-0.298-0.938-0.211-1.237-0.464
			c-0.271,0.198-0.353,0.59-0.361,1.038c-0.226,0.602-0.343,1.315-0.578,1.905c-0.084,0-0.17,0-0.263,0
			c-0.047-0.565,0.089-0.938,0.188-1.362c-0.104-0.225-0.266-0.103-0.506-0.182c-0.103-0.039-0.103-0.042-0.248-0.104
			c-0.271-0.108-0.122-0.316-0.503-0.178c-0.187,0.249,0.115,0.543,0.318,0.642c0.069,0.325,0.287,0.471,0.458,0.686
			c0.063,0.194-0.171,0.12-0.103,0.324c-0.084,0-0.188,0-0.278,0c-0.503-0.574-0.837-1.32-1.412-1.831
			c-0.023-0.246,0-0.446,0.22-0.458c0.114,0.08,0.251,0.143,0.283,0.289c0.693,0.1,0.67-0.512,0.729-1.039
			c-0.137-0.161-0.429-0.153-0.729-0.145C419.319,5.505,419.109,5.505,419.184,5.22z M420.905,5.862
			c-0.479,0.037-0.417,0.519-0.504,1.005c0.335,0.096,0.58,0.274,0.93,0.357c0.033-0.412,0.348-0.931,0.084-1.291
			C421.17,6.008,421.022,5.846,420.905,5.862z M423.559,7.478c0.019,0.29,0.344,0.273,0.465,0.46
			c-0.072,0.05-0.154,0.087-0.171,0.186c0.105,0,0.284-0.194,0.463-0.257c-0.234-0.232-0.264-0.951,0-1.177
			c-0.219,0.024-0.372-0.011-0.463-0.106C423.715,6.833,423.723,7.232,423.559,7.478z M425.328,7.331
			c0.022-0.427-0.952-0.729-0.821,0.072C424.662,7.8,425.313,7.709,425.328,7.331z M425.722,7.549
			c-0.386,0.381-0.794,0.706-1.406,0.856c0,0.13,0,0.266,0,0.392c0.171,0.137,0.321,0.27,0.538,0.368
			c1.219,0.209,0.979-1.058,1.421-1.65c-0.139-0.14-0.394-0.175-0.553-0.279C425.722,7.331,425.722,7.439,425.722,7.549z"/>
		<path fill="#00243A" d="M398.126,9.233c0.127,0,0.09,0.173,0.288,0.107c0.051,0.554-0.563,0.452-0.767,0.756
			c-0.023,0.341,0.086,0.536,0.279,0.643c0.086,0.246,0.153,0.49,0.358,0.606c0.12,0.487,0.502,0.723,0.646,1.188
			c0.023,0.178-0.146,0.178-0.215,0.282c-0.397,0.004-0.297-0.469-0.604-0.535c-0.262,0.236-0.574,0.431-0.866,0.645
			c-0.717,0.186-1.475-0.061-1.65-0.607c0.09-0.432,0.535-0.533,0.754-0.822c-0.031-0.116-0.122-0.187-0.138-0.32
			c-0.455-0.091-0.583,0.333-0.868,0.498c-0.179,0.107-0.275,0.171-0.389,0.361c0.049,0.058,0.09,0.122,0.177,0.146
			c0.253,0.919,1.203,1.142,1.29,2.222c-0.058-0.012-0.072,0.021-0.072,0.074c-0.181,0.025-0.274-0.027-0.391-0.074
			c-0.068-0.304-0.234-0.515-0.46-0.649c-0.194-0.502-0.642-0.954-0.979-1.361c-0.248,0.033-0.273,0.291-0.498,0.357
			c0,0.073,0,0.14,0,0.21c0.582,0.607,1.096,1.279,1.582,1.948c0,0.072,0,0.14,0,0.215c-0.086,0.055-0.145,0.15-0.363,0.103
			c-0.271-0.457-0.59-0.908-1.047-1.186c-0.34,0.262-0.643,0.547-0.812,0.966c0.101,0.512,0.688,0.544,1.298,0.577
			c-0.037,0.113,0.09,0.074,0.103,0.146c0.009,0.189-0.193,0.161-0.224,0.324c-0.193,0-0.39,0-0.576,0
			c-0.09-0.088-0.229-0.138-0.436-0.107c-0.26-0.21-0.518-0.42-0.654-0.76c-0.031-0.893,0.648-1.081,1.014-1.574
			c-0.084-0.217-0.189-0.403-0.498-0.395c-0.514,0.539-1.119,1.002-1.553,1.619c0.271,0.315,0.791,0.79,0.465,1.363
			c-0.031,0.091,0.076,0.074,0.076,0.14c0.563,0,1.164-0.032,1.625,0.07c-0.03,0.112,0.092,0.076,0.106,0.139
			c0.041,0.17-0.122,0.095-0.106,0.223c-0.963-0.053-2.137,0.087-2.989-0.079c0-0.092,0-0.192,0-0.291
			c0.489,0,0.739-0.249,0.823-0.637c-0.084-0.203-0.172-0.43-0.438-0.467c-0.387,0.281-0.664,0.671-0.93,1.076
			c0.642,0.599,1.271,1.207,2.043,1.684c0,0.111,0,0.237,0,0.356c-0.786,0.1-0.771-0.605-1.331-0.717
			c-0.243-0.432-0.745-0.618-1.041-1.005c-0.08,0.19-0.265,0.281-0.366,0.461c0.18,0.279,0.419,0.494,0.768,0.611
			c0.301,0.48,0.857,0.705,1.211,1.149c0,0.083,0,0.17,0,0.254c-0.092,0.048-0.205,0.091-0.393,0.07
			c-0.307-0.315-0.543-0.714-1.006-0.893c-0.255,0.075-0.259,0.379-0.457,0.507c0.119,0.423,0.686,0.407,0.645,0.97
			c-0.305,0.189-0.559,0.419-1.115,0.348c-0.047-0.167-0.312-0.107-0.465-0.178c-0.102-0.297-0.086-0.696,0.092-0.891
			c-0.161-0.233-0.262-0.459-0.57-0.281c-0.059,0.293-0.279,0.423-0.363,0.712c-0.13,0-0.265,0-0.391,0
			c0-0.664,0.491-0.843,0.628-1.366c0.554-0.053,0.722,0.269,1.056,0.432c0.223-0.145,0.271-0.445,0.457-0.606
			c-0.106-0.171-0.211-0.366-0.457-0.398c-0.103,0.024-0.125,0.124-0.229,0.171c-0.146,0.04-0.129-0.072-0.243-0.072
			c-0.014-0.344,0.157-0.519,0.354-0.645c0.194-0.559,0.758-0.741,0.945-1.291c0.889-0.825,1.584-1.818,2.52-2.58
			c-0.262-0.342-0.918-0.53-0.836-1.125c0.023-0.125,0.229-0.197,0.193-0.432c0.545-0.416,1.85-0.371,2.332,0.073
			c0.348-0.277,0.807-0.444,1.051-0.824c0.323-0.025,0.478-0.221,0.609-0.428c0.274-0.04,0.46-0.184,0.582-0.4
			c0.049,0,0.087,0,0.138,0C397.222,9.728,397.733,9.54,398.126,9.233z M396.642,10.777c-0.065,0.291,0.286,0.437,0.253,0.757
			c-0.049,0.397-0.559,0.322-0.649,0.784c0.018,0.137,0.204,0.111,0.229,0.254c0.606,0.087,1.184-0.396,1.269-0.829
			c0.088-0.558-0.441-0.688-0.435-1.116c-0.085,0.008-0.111-0.024-0.104-0.099C396.936,10.474,396.685,10.591,396.642,10.777z
			 M393.003,11.819c-0.282-0.086-0.204,0.226-0.463,0.175c-0.049,0.237,0.082,0.289,0.082,0.468c0.255,0.034,0.348,0.2,0.542,0.283
			c0.365-0.205,0.695-0.432,0.97-0.715C393.859,11.886,393.313,11.562,393.003,11.819z"/>
		<path fill="#00243A" d="M413.053,9.633c4.281-0.209,8.168,0.741,11.263,2.041c6.272,2.637,10.67,6.999,13.638,12.882
			c1.471,2.931,2.498,6.489,2.66,10.577c0.187,4.33-0.715,8.066-2.002,11.198c-1.299,3.119-3.154,5.771-5.261,7.993
			c-4.157,4.379-10.181,7.906-18.286,8.254c-4.265,0.172-8.103-0.695-11.214-2.01c-3.154-1.32-5.809-3.082-8.034-5.237
			c-4.491-4.396-7.92-9.886-8.313-18.181c-0.202-4.32,0.743-8.131,2.012-11.195c2.596-6.177,6.934-10.7,12.855-13.667
			c1.428-0.725,3.06-1.326,4.848-1.795C409.056,10.006,410.954,9.731,413.053,9.633z M402.798,13.103
			c-5.684,2.852-9.974,7.169-12.493,13.168c-1.188,2.855-2.135,6.713-1.938,10.872c0.191,3.885,1.181,7.308,2.625,10.185
			c2.854,5.668,7.184,9.944,13.249,12.401c3.021,1.237,6.651,2.138,10.823,1.941c3.918-0.181,7.346-1.127,10.23-2.579
			c5.719-2.864,9.938-7.151,12.496-13.168c1.27-3.004,2.117-6.64,1.941-10.803c-0.358-8.023-3.75-13.429-8.022-17.608
			c-2.151-2.084-4.727-3.766-7.783-5.057c-2.979-1.25-6.833-2.133-10.897-1.938C408.983,10.711,405.65,11.669,402.798,13.103z"/>
		<path fill="#00243A" d="M433.282,10.985c0.263,0.034,0.419,0.186,0.534,0.364c0.272,0,0.323,0.229,0.472,0.359
			c0.057,0,0.116,0,0.169,0c0.605,0.609,1.354,1.063,1.875,1.751c0.071,0,0.112,0,0.171,0c0.412,0.559,0.898,1.038,1.418,1.47
			c0,0.052,0,0.091,0,0.14c0.265,0.213,0.449,0.507,0.753,0.689c0,0.051,0,0.087,0,0.138c1.03,1.229,2.051,2.457,2.896,3.882
			c-0.341,0.606-0.635-0.285-0.875-0.431c-0.214,0.214-0.554,0.286-0.731,0.535c-0.229-0.008-0.521,0.051-0.641-0.066
			c-0.153,0.05-0.188,0.237-0.188,0.458c-0.322,0.262-0.028,1.146-0.681,1.075c0.016-0.06-0.023-0.071-0.076-0.071
			c-0.008-1.05,0.58-1.511,0.552-2.587c0.114-0.136,0.444-0.136,0.571,0c0.017,0.262-0.061,0.61,0.108,0.724
			c0.468,0.02,0.58-0.34,0.903-0.474c-0.008-0.079-0.089-0.071-0.177-0.068c-0.073-0.475-0.422-0.665-0.612-1.006
			c-0.239-0.072-0.275,0.194-0.402,0.285c-0.031,0.021-0.108-0.016-0.153,0c-0.075,0.033-0.084,0.139-0.133,0.179
			c-0.028,0.024-0.1-0.016-0.14,0c-0.261,0.129-0.435,0.462-0.721,0.648c-0.029,0.009-0.086-0.017-0.105,0
			c-0.202,0.145-0.319,0.357-0.507,0.46c0.063,0.212-0.071,0.279-0.112,0.362c-0.049,0.087-0.081,0.304-0.181,0.349
			c-0.099,0.071-0.396,0.087-0.504,0.083c-0.289-0.044-0.396-0.34-0.598-0.431c-0.042-0.574-0.521-1.237-0.153-1.759
			c0.202-0.021,0.193,0.17,0.324,0.215c-0.026,0.451,0.073,0.792,0.209,1.08c0.107-0.054,0.09-0.204,0.156-0.288
			c0.191,0,0.404,0,0.606,0c0.09-0.161,0.349-0.178,0.314-0.464c-0.258-0.265-0.43-0.606-0.356-1.184
			c0.381-0.368,0.783-0.697,1.178-1.038c0.029-0.203-0.131-0.219-0.209-0.322c-0.44,0.452-1.059,0.776-1.446,1.295
			c-0.43,0.079-0.518,0.535-0.939,0.643c-0.022-0.155-0.212-0.127-0.187-0.32c0.406-0.452,0.883-0.83,1.369-1.185
			c0.01-0.527-0.33-0.694-0.583-0.974c-0.14,0.325-0.064,0.878-0.505,0.901c-0.227-0.023-0.32-0.194-0.491-0.287
			c-0.041-0.465,0.016-0.837,0.104-1.182c0.951-0.57,1.206,0.852,2.003,0.999c0.107-0.099,0.204-0.218,0.329-0.286
			c-0.435-0.581-0.938-1.079-1.415-1.611c-0.301-0.048-0.521,0.275-0.764,0.503c-0.518,0.519-1.095,1.084-1.579,1.577
			c-0.086,0-0.188,0-0.28,0c-0.063-0.224-0.077-0.293,0-0.497c0.041-0.03,0.093-0.047,0.178-0.039
			c0.604-0.659,1.267-1.277,1.901-1.897c-0.356-0.46-0.807-0.846-1.257-1.224c-0.103,0.046-0.087,0.22-0.271,0.182
			c-0.075,0.051-0.025,0.229-0.146,0.217c0.247,0.115,0.464,0.262,0.633,0.456c0.133,1.299-0.698,1.624-1.573,1.904
			c-0.085-0.126-0.256-0.194-0.295-0.355c0.624-0.21,1.266-0.428,1.513-1.005c-0.086-0.382-0.276-0.647-0.647-0.577
			c-0.156,0.033-0.513,0.402-0.674,0.611c-0.025,0.027,0.016,0.107,0,0.139c-0.144,0.221-0.523,0.308-0.46,0.541
			c-0.13,0-0.26,0-0.371,0c-0.051-0.432,0.185-0.588,0.371-0.789c-0.032-0.083-0.209-0.009-0.291-0.038
			c-0.33-0.132-0.542-0.394-0.713-0.681c-0.089-0.788,0.432-0.984,0.854-1.252c0.566-0.017,0.894,0.206,1.181,0.46
			c0,0.086,0,0.17,0,0.257c0.171-0.079,0.28-0.194,0.364-0.356c-0.253-0.4-0.729-0.574-1.012-0.939
			C433.145,11.109,433.229,11.051,433.282,10.985z M433.537,13.003c0.085-0.28-0.094-0.653-0.377-0.72
			c-0.528-0.127-1.135,0.495-0.817,0.936c0.139,0.042,0.338,0.012,0.363,0.173C433.063,13.4,433.461,13.222,433.537,13.003z
			 M438.751,16.693c-0.365,0.415-1.083,0.451-0.991,1.299c0.083,0.042,0.186,0.083,0.169,0.249c0.178-0.063,0.142,0.096,0.257,0.107
			c0.44-0.186,0.712-0.559,1.145-0.753C439.254,17.162,439.061,16.871,438.751,16.693z M436.623,19.632
			c0.09,0.063,0.202,0.095,0.363,0.079c0-0.048,0-0.095,0-0.15c-0.161-0.029-0.221-0.174-0.363-0.214
			C436.623,19.44,436.623,19.54,436.623,19.632z"/>
		<path fill="#00243A" d="M417.729,16.937c0.041-0.148,0.142-0.249,0.262-0.316c0.365-1.204,1.061-2.067,1.826-2.868
			c0.274,0.034,0.578,0.034,0.723,0.186c0.52,0.087,1.055,0.171,1.268,0.578c0,0.341,0.124,0.57,0.083,0.959
			c-0.03,0.121,0.092,0.079,0.101,0.15c0,0.388,0,0.783,0,1.183c-0.184,0.243-0.086,0.772-0.184,1.111
			c0.293,0.245,0.669,0.431,1.146,0.499c0.834-0.947,1.672-1.886,2.88-2.476c0.518,0.322,1.144,0.522,1.548,0.962
			c0.049,0.503-0.105,0.78-0.073,1.261c-0.096,0.087-0.134,0.253-0.104,0.467c-0.155,0.364-0.311,0.721-0.357,1.189
			c-0.215,0.134-0.29,0.411-0.29,0.748c0.315,0.207,0.563,0.47,0.937,0.61c0.288-0.294,0.682-0.473,1.045-0.717
			c0.094-0.068,0.313-0.333,0.435-0.388c0.089-0.061,0.221-0.028,0.308-0.08c0.138-0.06,0.286-0.111,0.437-0.177
			c0.38-0.153,0.688-0.432,1.302-0.394c0.347,0.563,1.046,0.769,1.223,1.501c0.041,0.114-0.12,0.051-0.104,0.147
			c0.017,0.638-0.404,0.842-0.456,1.398c-0.114,0-0.098,0.1-0.193,0.1c0.032,0.295-0.148,0.282-0.284,0.47
			c-0.041,0.064-0.016,0.189-0.074,0.252c-0.231,0.291-0.689,0.501-0.647,0.937c0.032,0.237,0.272,0.362,0.366,0.57
			c0.202,0.503,0.736-0.008,1.07-0.142c0.322-0.128,0.665-0.16,0.95-0.258c0.079-0.024,0.102-0.061,0.172-0.099
			c0.138,0,0.271,0,0.4,0c0.112,0.016,0.09-0.096,0.179-0.104c0.202,0,0.421,0,0.606,0c0.093,0.021,0.06-0.074,0.123-0.082
			c0.322-0.037,0.518,0.066,0.714,0.186c0.187,0.578,0.539,1.014,0.816,1.504c0,0.061,0,0.115,0,0.183
			c-0.591,1.193-1.643,1.922-2.616,2.722c0.015,0.396,0.29,0.512,0.319,0.898c0.482-0.039,1.051,0,1.406-0.184
			c0.333,0.054,0.868-0.104,1.037,0.105c0.426-0.047,0.7,0.083,1.088,0.083c0.084,0.055,0.146,0.148,0.349,0.103
			c0.271,0.59,0.453,1.244,0.553,2.004c-0.243,0.132-0.34,0.432-0.553,0.574c-0.041,0.024-0.1-0.026-0.135,0
			c-0.161,0.112-0.34,0.366-0.602,0.431c-0.108,0.021-0.092,0.062-0.234,0.108c-0.147,0.057-0.195,0.214-0.304,0.278
			c-0.111,0.071-0.285,0.027-0.411,0.087c-0.146,0.053-0.286,0.221-0.47,0.273c-0.226,0.087-0.531,0.026-0.645,0.221
			c0.104,0.323,0.063,0.809,0.212,1.078c1.558,0.012,2.677,0.471,3.719,0.998c0,0.673,0,1.335,0,2.013
			c-0.451,0.262-1.017,0.396-1.368,0.75c-0.307-0.008-0.572,0.033-0.729,0.181c-0.552,0.162-1.535-0.095-1.816,0.323
			c-0.062,0.152,0.138,0.078,0.099,0.216c-0.219,0.017-0.074,0.392-0.099,0.581c0.023,0.076,0.138,0.076,0.138,0.175
			c0.706,0.079,1.106,0.448,1.718,0.609c-0.005,0.127,0.15,0.094,0.15,0.216c0.068,0,0.141,0,0.216,0
			c0.296,0.365,0.759,0.566,1.055,0.939c0,0.826-0.379,1.276-0.477,1.998c-1.056,0.33-2.792,0.352-3.909,0.076
			c-0.146,0.053-0.21,0.182-0.188,0.401c-0.154,0.146-0.225,0.383-0.284,0.604c0.033,0.119,0.108,0.195,0.284,0.18
			c-0.033,0.129,0.128,0.061,0.112,0.17c0.674,0.279,0.998,0.92,1.58,1.3c0.091,0.528,0.745,0.767,0.642,1.302
			c-0.025,0.164-0.286,0.309-0.396,0.495c-0.13,0.228-0.154,0.528-0.26,0.683c-0.104,0.187-0.333,0.289-0.406,0.465
			c-0.518,0.027-0.949-0.031-1.4-0.076c-0.114,0.045-0.063-0.108-0.147-0.1c-0.927-0.088-1.496-0.514-2.302-0.718
			c-0.18,0.376-0.592,0.513-0.606,1.039c0.598,0.731,1.214,1.451,1.481,2.511c0.157,0.26,0.298,0.682,0.1,1.002
			c-0.523,0.235-0.763,0.78-1.268,1.035c-1.319-0.349-2.418-0.943-3.274-1.764c-0.512,0.021-0.688,0.375-0.956,0.609
			c0.431,1.047,0.916,2.051,0.809,3.625c-0.466,0.42-1.142,0.644-1.676,0.994c-0.131,0-0.253,0-0.372,0
			c-0.141-0.027-0.123-0.216-0.36-0.172c-0.65-0.563-1.304-1.109-1.867-1.756c-0.075-0.293-0.247-0.479-0.433-0.652
			c-0.294,0.183-0.797,0.151-0.971,0.465c0.374,1.08,0.212,2.623-0.076,3.658c-0.665,0.241-1.404,0.422-2.155,0.578
			c-0.106-0.063-0.169-0.156-0.368-0.1c-0.679-0.941-1.343-1.891-1.729-3.122c-0.386-0.024-0.717,0-0.968,0.104
			c-0.139,0.365-0.106,0.918-0.171,1.358c-0.357,0.808-0.505,1.793-1.16,2.297c-0.591,0-1.167,0-1.761,0
			c-0.022-0.159-0.178-0.208-0.29-0.282c-0.229-0.535-0.373-1.172-0.637-1.683c0.008-0.319-0.118-0.489-0.077-0.858
			c0.036-0.109-0.086-0.078-0.102-0.144c0-0.213,0-0.43,0-0.646c-0.039-0.051-0.094-0.073-0.102-0.141
			c-0.442,0.083-0.641-0.109-1.006-0.109c-0.195,0.425-0.454,0.772-0.544,1.291c-0.228,0.196-0.362,0.447-0.471,0.763
			c-0.415,0.344-0.728,0.791-1.103,1.188c-0.291,0.034-0.401-0.129-0.695-0.084c-0.319-0.218-0.821-0.238-1.186-0.396
			c-0.18-0.335-0.21-0.818-0.394-1.146c0-0.611,0-1.248,0-1.854c-0.033-0.118,0.084-0.081,0.105-0.146
			c0.007-0.228-0.069-0.512,0.094-0.574c-0.194-0.317-0.674-0.365-1.078-0.463c-0.577,0.805-1.306,1.467-2.03,2.123
			c-0.313,0.02-0.449,0.221-0.671,0.358c-0.51,0.024-0.613-0.34-1.08-0.358c-0.162-0.269-0.469-0.361-0.761-0.459
			c-0.179-1.287,0.325-2.774,0.94-3.709c-0.251-0.344-0.605-0.566-0.98-0.785c-0.948,0.627-1.836,1.354-3.197,1.612
			c-0.126-0.03-0.059,0.14-0.18,0.114c-0.612-0.229-0.838-0.794-1.343-1.126c-0.023-0.315,0.073-0.445,0.106-0.763
			c0.038-0.188,0.228-0.325,0.298-0.487c0.052-0.115,0.025-0.284,0.074-0.404c0.051-0.108,0.22-0.202,0.281-0.325
			c0.059-0.096,0.033-0.218,0.074-0.283c0.049-0.072,0.179-0.098,0.218-0.172c0.063-0.088,0.035-0.199,0.088-0.281
			c0.025-0.049,0.154-0.082,0.177-0.147c0.088-0.237,0.3-0.403,0.469-0.575c0-0.045,0-0.088,0-0.137
			c-0.188-0.339-0.49-0.544-0.646-0.904c-1.125,0.467-2.413,0.953-3.92,0.822c-0.266-0.511-0.557-1.013-0.82-1.508
			c0.012-0.502,0.358-0.818,0.605-1.178c0.107-0.176,0.339-0.266,0.424-0.403c0.102-0.138,0-0.114,0.18-0.21
			c0.256-0.13,0.457-0.518,0.648-0.658c0.104-0.063,0.256-0.051,0.33-0.096c0.188-0.105,0.334-0.318,0.504-0.398
			c-0.146-0.39-0.211-0.865-0.537-1.076c-1.07,0.373-2.975,0.273-3.872-0.181c0-0.291-0.032-0.547-0.172-0.688
			c0.074-0.526-0.258-0.777-0.179-1.18c0.092-0.49,0.731-0.459,0.949-0.896c0.291-0.092,0.56-0.241,0.754-0.432
			c0.563-0.175,1.086-0.369,1.574-0.605c0.061-0.432-0.033-0.732-0.094-1.047c-0.156,0-0.309,0-0.458,0
			c-0.104,0.033-0.053-0.117-0.147-0.104c-1.264-0.041-2.141-0.453-2.994-0.9c-0.264-0.568,0.02-1.354-0.033-2.038
			c1.02-0.557,2.152-0.98,3.716-1.005c0.113-0.286,0.089-0.739,0.228-1.009c-0.184-0.224-0.489-0.297-0.828-0.361
			c0.031-0.131-0.137-0.052-0.111-0.174c-1.02-0.261-1.578-0.971-2.339-1.506c0.136-0.76,0.282-1.507,0.683-2.01
			c1.123-0.204,2.549-0.262,3.682,0c0.203-0.291,0.384-0.619,0.494-1c-0.758-0.626-1.472-1.263-2.158-1.934
			c-0.025-0.363-0.24-0.511-0.368-0.756c0-0.067,0-0.118,0-0.18c0.144-0.087,0.085-0.279,0.188-0.431
			c0.03-0.059,0.123-0.05,0.18-0.103c0.074-0.094,0.039-0.257,0.099-0.367c0.085-0.128,0.29-0.253,0.367-0.354
			c0.065-0.099,0-0.214,0.101-0.285c0.063-0.043,0.213,0.036,0.213-0.076c0.449-0.04,0.729,0.13,1.198,0.076
			c0.104-0.033,0.048,0.112,0.121,0.1c0.339-0.008,0.64,0.078,0.916,0.186c0.121,0.048,0.137,0.048,0.364,0.1
			c0.09,0.03,0.131,0.154,0.21,0.182c0.212,0.08,0.468,0.026,0.584,0.249c0.325,0.113,0.287-0.112,0.412-0.249
			c0.046-0.061,0.192-0.115,0.261-0.222c0.023-0.017,0.194-0.341,0.186-0.283c0.019-0.191-0.339-0.469-0.445-0.605
			c-0.132-0.139-0.207-0.368-0.294-0.496c-0.094-0.132-0.132-0.103-0.18-0.29c-0.049-0.18-0.34-0.466-0.378-0.719
			c0.021-0.083-0.111-0.02-0.169-0.037c-0.063-0.138,0.099-0.075,0.072-0.178c-0.08-0.375-0.31-0.606-0.251-1.109
			c0.42-0.412,0.786-0.867,1.198-1.295c1.688,0.063,2.58,0.942,3.521,1.759c0.296-0.183,0.535-0.432,0.867-0.575
			c-0.19-0.868-0.633-1.454-0.649-2.475c0.024-0.12-0.118-0.051-0.11-0.146c0.022-0.459-0.066-1.011,0.11-1.327
			c0.56-0.171,0.878-0.583,1.474-0.714c0.104,0.033,0.078-0.086,0.138-0.099c0.557,0.353,1.172,0.634,1.556,1.177
			c0.054,0,0.112,0,0.178,0c0.021,0.365,0.431,0.455,0.606,0.725c0.019,0.027,0.008,0.094,0.033,0.139
			c0.054,0.074,0.171,0.109,0.228,0.183c0.063,0.095,0.057,0.325,0.242,0.352c0.294-0.151,0.678-0.215,0.942-0.393
			c-0.181-1.32-0.229-2.807,0.3-3.836c0.424,0.049,0.533-0.205,0.932-0.18c0.112,0.026,0.048-0.119,0.146-0.111
			c0.558-0.143,1.128-0.057,1.257,0.432c0.698,0.693,1.146,1.636,1.467,2.686c0.368,0.017,0.582-0.119,0.97-0.075
			c0.341-0.24,0.257-0.905,0.333-1.398c-0.046-0.117,0.11-0.05,0.093-0.141c0.084-0.901,0.577-1.396,0.846-2.117
			c0.47-0.112,1.159-0.195,1.668-0.104c0.388,0.07,0.446,0.231,0.653,0.575c0.074,0.106,0.074,0.043,0.101,0.213
			c0.041,0.175,0.313,0.333,0.255,0.644c-0.043,0.117,0.086,0.075,0.11,0.141c-0.017,0.433,0.214,0.616,0.18,1.079
			c-0.035,0.114,0.09,0.076,0.102,0.138c0.043,0.3-0.06,0.503,0,0.681C416.692,17.021,417.29,16.826,417.729,16.937z
			 M413.887,14.115c-0.169,0.204-0.251,0.49-0.396,0.715c0,0.273-0.082,0.473-0.186,0.639c-0.051,0.697-0.114,1.394-0.22,2.047
			c-0.824,0.06-1.53,0.223-2.37,0.25c-0.04-0.114-0.158-0.139-0.217-0.25c0.049-0.27-0.12-0.329-0.082-0.61
			c-0.22-0.188-0.212-0.689-0.355-0.931c-0.092-0.133-0.33-0.212-0.283-0.463c-0.229-0.18-0.382-0.413-0.494-0.681
			c-0.148-0.035-0.218-0.147-0.373-0.178c-0.269,0.151-0.662,0.194-1.001,0.286c-0.402,1.092-0.054,2.436,0.076,3.544
			c-0.171,0.033-0.403,0.178-0.503,0.215c-0.063,0.022-0.153-0.021-0.222,0c-0.154,0.066-0.29,0.22-0.461,0.288
			c-0.062,0.024-0.126-0.015-0.185,0c-0.199,0.075-0.357,0.239-0.432,0.253c-0.495,0.112-0.605-0.182-0.673-0.537
			c-0.152-0.049-0.152-0.251-0.284-0.314c-0.273-0.64-0.905-0.942-1.318-1.441c-0.229,0.052-0.204-0.153-0.343-0.174
			c-0.459,0.104-0.789,0.345-1.141,0.574c0,0.26,0,0.527,0,0.788c0.018,0.067,0.146,0.024,0.104,0.138
			c-0.049,0.29,0.128,0.572,0.177,0.679c0.078,0.159,0.03,0.333,0.078,0.475c0.014,0.02,0.083,0.037,0.104,0.072
			c0.158,0.272,0.229,0.654,0.371,0.936c0.041,0.079,0.182,0.173,0.097,0.355c-0.61,0.413-1.233,0.816-1.776,1.327
			c-0.072,0-0.146,0-0.243,0c-0.251-0.17-0.43-0.577-0.761-0.779c-0.044-0.024-0.146-0.008-0.188-0.04
			c-0.086-0.072-0.13-0.21-0.228-0.281c-0.114-0.096-0.307-0.112-0.431-0.183c-0.072-0.036-0.09-0.142-0.131-0.174
			c-0.177-0.111-0.362-0.087-0.591-0.182c-0.193-0.088-0.331-0.294-0.647-0.212c-0.265,0.079-1.078,0.984-0.533,1.366
			c0,0.066,0,0.138,0,0.217c0.508,0.705,0.94,1.506,1.596,2.08c0.064,0.397-0.234,0.436-0.373,0.68
			c-0.049,0.067,0,0.127-0.041,0.174c-0.215,0.261-0.555,0.463-0.724,0.722c-0.086,0.116-0.019,0.299-0.213,0.349
			c-1.051-0.14-1.527-0.864-2.688-0.892c-0.091,0.012-0.041-0.138-0.146-0.107c-0.26,0-0.512,0-0.774,0
			c-0.093,0.388-0.434,0.535-0.348,1.115c0.354,0.457,0.813,0.831,1.187,1.301c0.432,0.085,0.512,0.508,0.996,0.535
			c0.064,0.169,0.263,0.228,0.325,0.402c-0.268,0.367-0.438,0.847-0.681,1.25c-0.098,0.353-0.188,0.726-0.43,0.939
			c-0.146,0.083-0.244-0.076-0.392-0.105c-0.258-0.065-0.528-0.008-0.769-0.074c-0.069-0.021-0.077-0.102-0.14-0.109
			c-0.761-0.108-1.596,0.031-2.276,0.109c-0.101,0.322-0.221,0.643-0.188,1.106c0.576,0.417,1.055,0.903,1.835,1.081
			c0.257,0.357,1.038,0.163,1.235,0.583c-0.121,0.203,0,0.634-0.182,0.78c-0.084,0.535-0.039,1.182-0.254,1.576
			c-1.387-0.004-2.549,0.215-3.504,0.647c0,0.353,0,0.719,0,1.075c0.947,0.386,1.905,0.77,3.316,0.682
			c0.095,0.061,0.171,0.167,0.256,0.249c-0.057,0.885,0.197,1.465,0.186,2.295c-0.084,0-0.172,0-0.254,0
			c-0.35,0.171-0.775,0.271-1.189,0.365c-0.4,0.251-0.861,0.478-1.268,0.649c-0.092,0.111-0.138,0.274-0.348,0.274
			c0.021,0.202-0.189,0.178-0.107,0.435c0.172,0.213,0.146,0.618,0.276,0.865c1.045,0.094,2.17,0.118,2.909-0.109
			c0.22-0.067,0.429-0.06,0.617-0.076c0.023,0.109,0.121,0.135,0.18,0.211c-0.059,0.346,0.145,0.436,0.219,0.604
			c0.047,0.146,0.025,0.299,0.079,0.438c0,0.024,0.086,0.032,0.104,0.073c0.146,0.332,0.247,0.653,0.349,1.006
			c-0.143,0.168-0.394,0.252-0.53,0.433c-0.797,0.288-1.271,0.942-1.887,1.431c0.035,0.188-0.072,0.245-0.18,0.289
			c-0.041,0.604,0.222,0.885,0.549,1.114c0.219-0.13,0.525-0.069,0.84-0.106c0.141-0.022,0.313-0.133,0.488-0.184
			c0.188-0.041,0.422-0.008,0.562-0.074c0.084-0.035,0.158-0.164,0.26-0.217c0.349-0.145,0.744-0.201,0.867-0.434
			c0.146,0,0.29,0,0.431,0c0.151,0.582,0.66,0.791,0.82,1.361c0.24,0.147,0.395,0.348,0.58,0.536c0,0.119,0,0.239,0,0.356
			c-0.818,0.757-1.633,1.506-1.882,2.843c0.266,0.187,0.403,0.481,0.741,0.578c0.313-0.113,0.623-0.253,0.954-0.36
			c0.243-0.255,0.536-0.433,0.907-0.535c0.383-0.324,0.698-0.695,1.145-0.942c0.65,0.477,1.273,0.979,1.946,1.438
			c0,0.117,0,0.248,0,0.363c-0.478,0.623-0.759,1.482-1.039,2.333c0,0.246,0,0.476,0,0.722c0.288,0.248,0.553,0.526,1.147,0.461
			c0.206-0.238,0.493-0.369,0.69-0.613c0.222-0.074,0.4-0.204,0.432-0.461c0.057,0,0.109,0,0.17,0
			c0.18-0.51,0.632-0.737,0.763-1.299c0.164-0.172,0.261-0.058,0.357,0c0.129,0.088,0.438,0.135,0.552,0.184
			c0.016,0.014,0,0.096,0.03,0.107c0.212,0.09,0.418,0.023,0.515,0.178c0.448,0.097,0.905,0.186,1.136,0.498
			c-0.271,0.969-0.542,2.365-0.169,3.44c0.435-0.009,0.619,0.244,1.114,0.183c0.162-0.228,0.303-0.51,0.585-0.646
			c0.247-0.712,0.745-1.175,0.812-2.042c0.12-0.079,0.104-0.291,0.263-0.355c0.205-0.082,0.59,0.049,0.97,0
			c0.085-0.018,0.024,0.139,0.146,0.106c0.575,0,1.104,0.048,1.396,0.315c-0.062,0.679,0.07,1.174,0.104,1.764
			c0.012,0.068,0.144,0.021,0.104,0.143c-0.022,0.314,0.209,0.705,0.286,0.896c0.063,0.131,0.056,0.327,0.073,0.359
			c0.158,0.267,0.654,0.135,1.111,0.177c0.465-0.405,0.541-1.158,0.761-1.798c-0.024-0.568,0.146-0.949,0.084-1.541
			c0.096-0.01,0.096-0.114,0.178-0.143c0.783-0.046,1.519-0.158,2.235-0.281c0.049,0.107,0.136,0.174,0.218,0.252
			c0.194,1.233,0.778,2.095,1.41,2.914c0.572-0.043,1.023-0.174,1.396-0.406c0.163-1.227,0-2.41-0.279-3.374
			c0.395-0.212,0.843-0.374,1.372-0.462c0.188-0.252,0.626-0.262,0.854-0.469c0.213-0.024,0.219,0.127,0.364,0.15
			c0.27,0.564,0.591,1.084,1.037,1.473c0,0.045,0,0.086,0,0.137c0.471,0.188,0.679,0.621,1.129,0.834
			c0.373-0.111,0.66-0.314,1.002-0.467c0.026-0.512-0.021-0.953-0.086-1.362c-0.193-0.257-0.202-0.476-0.275-0.765
			c-0.058-0.182-0.229-0.283-0.292-0.429c-0.161-0.356-0.323-0.514-0.349-0.899c0.706-0.424,1.332-0.92,1.938-1.439
			c0.263-0.081,0.247,0.141,0.457,0.1c0.302,0.396,0.786,0.59,1.052,1c0.225,0.033,0.411,0.101,0.468,0.287
			c0.327,0.039,0.496,0.223,0.729,0.361c0.215-0.052,0.261,0.074,0.435,0.074c0.348-0.178,0.708-0.346,0.604-0.963
			c-0.256-0.482-0.476-0.978-0.822-1.362c0-0.049,0-0.092,0-0.142c-0.164-0.138-0.511-0.324-0.648-0.578
			c-0.016-0.033,0.033-0.109,0-0.147c-0.115-0.149-0.406-0.192-0.275-0.534c0.585-0.574,1.028-1.291,1.541-1.938
			c0.229-0.055,0.276,0.076,0.464,0.076c0.479,0.483,1.301,0.637,1.984,0.933c0.125,0,0.259,0,0.396,0
			c0.09,0.146,0.392,0.097,0.608,0.104c0.211-0.307,0.486-0.561,0.505-1.08c-0.554-0.986-1.554-1.533-2.517-2.107
			c0-0.171,0-0.341,0-0.504c0.488-0.561,0.544-1.54,1.114-2.006c0.971,0.271,2.295,0.51,3.464,0.255
			c0.063-0.418,0.304-0.647,0.255-1.183c-0.732-0.599-1.669-0.963-2.667-1.299c-0.234,0.017-0.397-0.033-0.497-0.139
			c0.051-0.845,0.312-1.451,0.286-2.374c0.089-0.004,0.089-0.11,0.178-0.142c1.5,0.109,2.633-0.141,3.445-0.717
			c0-0.308,0-0.615,0-0.935c-0.735-0.508-2.125-0.731-3.226-0.639c-0.05-0.12-0.26-0.083-0.284-0.22
			c0-0.893-0.271-1.514-0.285-2.407c0.094-0.087,0.261-0.122,0.357-0.213c1.177-0.246,2.144-0.697,2.81-1.436
			c-0.125-0.208-0.084-0.604-0.178-0.859c-0.126-0.015-0.239-0.162-0.366-0.188c-1.026-0.215-2.412,0.142-3.196,0.292
			c-0.369-0.174-0.271-0.594-0.434-1.005c-0.01-0.025-0.087-0.049-0.103-0.072c-0.138-0.231-0.171-0.547-0.294-0.787
			c-0.084-0.167-0.259-0.212-0.177-0.469c0.263-0.262,0.58-0.495,1.006-0.606c0.492-0.519,1.125-0.909,1.508-1.544
			c0-0.553-0.275-0.824-0.504-1.146c-0.823,0.062-1.43,0.349-2.188,0.469c-0.296,0.299-0.707,0.515-1.266,0.578
			c-0.404-0.74-0.987-1.268-1.441-1.948c0-0.05,0-0.112,0-0.176c0.355-0.236,0.557-0.605,0.938-0.82
			c-0.016-0.225,0.115-0.279,0.262-0.357c0.059-0.26,0.194-0.446,0.4-0.577c0.037-0.416,0.247-0.638,0.357-0.962
			c-0.134-0.178-0.265-0.366-0.357-0.578c-0.182,0.02-0.239-0.083-0.286-0.182c-0.989,0.087-1.573,0.598-2.193,1.084
			c-0.471,0.04-0.512,0.754-0.937,0.747c-0.171,0-0.266-0.27-0.505-0.457c-0.034-0.024-0.101,0.013-0.136,0
			c-0.104-0.056-0.188-0.25-0.267-0.286c-0.04-0.021-0.107,0.024-0.131,0c-0.253-0.185-0.424-0.433-0.593-0.538
			c-0.048-0.028-0.13,0.027-0.181,0c-0.104-0.087-0.087-0.198-0.229-0.257c0-0.124,0-0.239,0-0.353
			c0.577-0.769,0.963-1.696,1.058-2.952c-0.182-0.261-0.648-0.24-0.829-0.499c-0.34,0.063-0.484,0.296-0.721,0.475
			c-0.049,0-0.092,0-0.141,0c-0.573,0.594-1.114,1.2-1.551,1.93c-0.104,0-0.213,0-0.316,0c-0.604-0.357-1.472-0.481-2.006-0.893
			c0.017-0.262-0.018-0.535,0.063-0.784c0.024-0.059,0.106-0.083,0.121-0.149c0.132-0.777,0.087-1.665,0-2.479
			c-0.388-0.112-0.784-0.203-1.19-0.286c-0.483,0.543-0.961,1.076-1.157,1.901c-0.302,0.23-0.193,0.88-0.491,1.113
			c-0.816-0.046-1.536-0.194-2.347-0.252c-0.018-0.083-0.1-0.096-0.133-0.175c0.084-1.331-0.177-2.362-0.582-3.22
			C414.787,14.115,414.343,14.115,413.887,14.115z"/>
		<path fill="#00243A" d="M413.136,18.486c5.705-0.304,10.061,1.989,12.976,4.698c3.004,2.77,5.29,6.66,5.631,12.019
			c0.349,5.652-2.029,10.051-4.728,12.882c-2.895,3.028-6.566,5.302-12.024,5.622c-5.611,0.352-10.062-2.008-12.944-4.655
			c-2.994-2.728-5.337-6.624-5.663-11.979c-0.322-5.762,1.979-10.012,4.655-12.956c2.031-2.213,4.806-4.057,8.246-5.015
			C410.45,18.764,411.854,18.557,413.136,18.486z M409.462,19.956c-3.259,0.943-5.876,2.689-7.783,4.813
			c-2.524,2.792-4.743,6.852-4.396,12.303c0.341,5.221,2.489,8.613,5.398,11.334c2.71,2.521,7.007,4.752,12.308,4.41
			c5.064-0.326,8.83-2.517,11.417-5.344c2.516-2.759,4.784-6.853,4.421-12.27c-0.344-5.091-2.54-8.668-5.368-11.37
			c-2.686-2.586-6.957-4.757-12.34-4.438C411.975,19.449,410.548,19.644,409.462,19.956z"/>
		<path fill="#00243A" d="M414.534,22.467c0.18,0.237,0.197,0.63,0.18,1.079c0,0.047,0.056,0.035,0.099,0.039
			c-0.048,0.333,0.064,0.511,0.074,0.781c0.008,0.044,0.063,0.036,0.104,0.04c0.016,0.262,0,0.526,0.188,0.606
			c-0.017,0.597,0.293,0.847,0.36,1.362c0.238,0.122,0.117,0.602,0.397,0.681c0.036,0.161,0.036,0.34,0.183,0.36
			c-0.013,0.361,0.306,0.42,0.288,0.793c0.125,0.126,0.264,0.262,0.253,0.538c0.182-0.022,0.011,0.285,0.22,0.247
			c-0.054,0.245,0.123,0.261,0.079,0.502c0,0.042,0.067,0.035,0.093,0.035c0.027,0.227,0.01,0.472,0.19,0.543
			c-0.045,0.403,0.224,0.503,0.182,0.896c0.009,0.043,0.065,0.03,0.097,0.039c-0.055,0.302,0.115,0.385,0.074,0.686
			c0.008,0.04,0.072,0.031,0.099,0.035c-0.05,0.919,0.228,1.513,0.187,2.404c-0.033,0-0.074,0-0.1,0
			c0.043,0.61-0.063,1.092-0.087,1.648c-0.025,0-0.058,0-0.099,0c0.064,0.357-0.089,0.494-0.074,0.826c-0.039,0-0.063,0-0.097,0
			c0,0.086,0,0.187,0,0.283c-0.166,0.327-0.268,0.685-0.372,1.073c-0.033,0-0.063,0-0.093,0c0,0.32-0.102,0.519-0.288,0.647
			c0.048,0.23-0.09,0.263-0.071,0.465c-0.34,0.179-0.364,0.673-0.587,0.963c0,0.105,0,0.213,0,0.324
			c-0.031,0.111,0.113,0.051,0.106,0.143c-0.063,0.617,0.468,0.658,0.637,1.039c0.094,0,0.231-0.027,0.187,0.104
			c0.426,0.092,0.961,0.106,1.375,0c0.355-0.287,0.761-0.543,0.867-1.111c0.032,0,0.063,0,0.098,0c0-0.086,0-0.188,0-0.281
			c0.03,0,0.071,0,0.087,0c-0.016-0.438,0.139-0.705,0.084-1.18c0.047,0,0.071,0,0.104,0c-0.064-0.549-0.13-1.066-0.188-1.619
			c0-0.04-0.071-0.027-0.087-0.036c-0.025-0.088,0.016-0.183,0-0.245c-0.025-0.063-0.09-0.013-0.098-0.037
			c-0.073-0.098-0.008-0.391-0.188-0.367c0.039-0.364-0.269-0.389-0.188-0.785c-0.006-0.041-0.062-0.028-0.103-0.033
			c-0.09-0.649-0.09-1.295,0-1.938c0.041,0,0.066,0,0.103,0c-0.035-0.627,0.423-0.76,0.474-1.3c0.131,0.046,0.063-0.085,0.171-0.069
			c0.071-0.428,0.511-0.479,0.654-0.834c0.04,0,0.086,0,0.135,0c0.077-0.088,0.122-0.195,0.286-0.176
			c0.131-0.249,0.54-0.233,0.683-0.46c0.097-0.026,0.332,0.08,0.275-0.109c0.313-0.008,0.536-0.111,0.908-0.073
			c0.05-0.009,0.041-0.058,0.041-0.095c0.259,0,0.56,0,0.811,0c0,0.024,0,0.061,0,0.095c0.396-0.05,0.601,0.087,0.953,0.073
			c0.102,0.217,0.411,0.233,0.646,0.289c0,0.144,0.12,0.178,0.282,0.174c0.016,0.144,0.126,0.187,0.279,0.182
			c0.169,0.377,0.604,0.473,0.723,0.896c0.313,0.263,0.531,0.627,0.58,1.146c-0.059,0.013-0.098,0.025-0.092,0.097
			c-0.118,0-0.258,0.017-0.281-0.08c-0.386,0.041-0.953-0.117-1.083,0.179c-0.365,0.036-0.504,0.306-0.576,0.647
			c-0.042,0-0.077,0-0.098,0c-0.071,0.473,0.059,0.772,0.098,1.146c0.203,0.257,0.296,0.605,0.358,1.004
			c0.008,0.042,0.074,0.023,0.1,0.034c0.049,0.144-0.1,0.491,0.102,0.464c0.102,1,0.102,2.195,0,3.199
			c-0.2-0.041-0.068,0.265-0.102,0.391c-0.037,0-0.076,0-0.1,0c0.055,0.525-0.266,0.689-0.257,1.184
			c-0.216-0.076-0.009,0.256-0.216,0.183c-0.068,0.446-0.376,0.637-0.434,1.077c-0.105,0-0.091,0.131-0.22,0.104
			c-0.049,0.256-0.146,0.44-0.358,0.542c0,0.07,0,0.148,0,0.216c-0.434,0.264-0.655,0.724-1.004,1.07
			c-0.404,0-0.354,0.445-0.713,0.471c-0.076,0.09-0.131,0.194-0.301,0.176c-0.093,0.15-0.264,0.246-0.457,0.291
			c-0.033,0.068-0.087,0.103-0.104,0.178c-0.547,0.093-0.781,0.488-1.379,0.533c-0.039,0.005-0.021,0.07-0.03,0.103
			c-0.112,0.038-0.341-0.081-0.283,0.106c-0.237,0.024-0.493,0.017-0.583,0.179c-0.759,0.03-1.218,0.335-2.081,0.252
			c-0.163,0.94,0.179,2.39-0.255,3.048c-1.471,0.219-3.269,0.26-4.729,0c0-0.089,0.044-0.229-0.093-0.171c0-0.987,0-1.974,0-2.942
			c-0.091,0-0.198,0-0.29,0c-0.104,0.024-0.077-0.095-0.134-0.104c-0.941,0.081-1.468-0.243-2.206-0.366c0-0.031,0-0.076,0-0.102
			c-0.446-0.024-0.67-0.295-1.116-0.356c0.03-0.103-0.123-0.044-0.082-0.178c-0.266-0.052-0.53-0.136-0.638-0.358
			c-0.069,0-0.14,0-0.212,0c0.059-0.135-0.105-0.076-0.075-0.175c-0.396-0.021-0.37-0.446-0.765-0.467
			c-0.478-0.61-1.136-1.031-1.469-1.798c-0.104,0-0.079-0.161-0.225-0.137c0.04-0.349-0.271-0.342-0.244-0.689
			c-0.226-0.109-0.188-0.49-0.404-0.604c-0.018-0.203-0.024-0.397-0.196-0.436c0-0.264,0.022-0.553-0.17-0.645
			c-0.055-0.146,0.102-0.488-0.096-0.469c-0.128-1.152-0.111-2.54,0.096-3.586c0.031,0,0.074,0,0.102,0
			c-0.069-0.287,0.092-0.375,0.068-0.644c0.041,0,0.086,0,0.11,0c0-0.207,0.025-0.401,0.188-0.46c0-0.201,0.008-0.395,0.18-0.432
			c0-0.092,0-0.186,0-0.281c0.041,0,0.074,0,0.107,0c0.055-0.392-0.066-0.607-0.107-0.895c-0.172-0.21-0.384-0.365-0.547-0.575
			c-0.4-0.106-0.866-0.138-1.396-0.106c-0.092-0.479,0.202-0.56,0.25-0.89c0.428-0.374,0.695-0.919,1.3-1.126
			c0.031-0.055,0.124-0.055,0.11-0.174c0.484-0.075,0.753-0.407,1.353-0.36c0.051-0.008,0.033-0.06,0.041-0.1
			c0.812-0.072,1.42,0.079,2.053,0.179c-0.053,0.178,0.177,0.086,0.294,0.103c0.016,0.155,0.188,0.15,0.351,0.176
			c0,0.035,0,0.078,0,0.106c0.315-0.049,0.264,0.292,0.579,0.249c0.436,0.565,1.016,0.975,1.177,1.798
			c0.008,0.04,0.07,0.032,0.111,0.036c0.033,0.101-0.081,0.341,0.106,0.288c0.085,0.65,0.098,1.352,0,2.005
			c-0.036,0-0.073,0-0.106,0c0.019,0.53-0.348,0.693-0.354,1.216c-0.251-0.005-0.066,0.419-0.284,0.428
			c-0.041,0.127,0.092,0.432-0.114,0.396c-0.008,0.772-0.08,1.242,0,1.98c0.008,0.041,0.081,0.026,0.114,0.034
			c0.057,0.272,0.025,0.579,0.179,0.785c0.017,0.024,0.105,0.024,0.105,0.032c0.07,0.131,0.018,0.188,0.07,0.262
			c0.041,0.039,0.123,0.039,0.173,0.105c0.07,0.074,0.03,0.209,0.111,0.281c0.041,0.025,0.14-0.008,0.188,0
			c0.064,0.018,0.09,0.17,0.098,0.18c0.056,0.023,0.138-0.033,0.188,0c0.049,0.033,0.179,0.146,0.321,0.179
			c0.325,0.063,0.654-0.062,0.938-0.082c0.05-0.072,0.079-0.149,0.222-0.104c0.026-0.072,0.085-0.09,0.09-0.171
			c0.24-0.021,0.37-0.138,0.37-0.364c0.397-0.258,0.397-1.328,0-1.576c0-0.312-0.299-0.324-0.265-0.686
			c0-0.041-0.058-0.031-0.105-0.041c0-0.084,0-0.162,0-0.253c-0.179-0.044-0.087-0.346-0.272-0.388
			c-0.008-0.618-0.38-0.885-0.358-1.547c0-0.042-0.071-0.034-0.087-0.039c0.023-0.396-0.141-0.614-0.082-1.041
			c-0.01-0.045-0.081-0.029-0.104-0.037c-0.058-1.413,0.031-2.674,0.188-3.882c0.031,0,0.065,0,0.087,0
			c-0.056-0.304,0.115-0.399,0.082-0.715c0.186,0.055,0.085-0.179,0.098-0.287c0.057,0,0.088,0,0.104,0
			c-0.025-0.571,0.396-0.717,0.348-1.295c0.164-0.016,0.164-0.207,0.204-0.355c0.171-0.045,0.171-0.258,0.171-0.465
			c0.171-0.104,0.262-0.292,0.273-0.538c0.171-0.028,0.171-0.202,0.188-0.361c0.028,0,0.079,0,0.096,0
			c0.018-0.432,0.39-0.531,0.37-0.999c0.152-0.159,0.282-0.336,0.282-0.648c0.142-0.076,0.202-0.236,0.188-0.468
			c0.032,0,0.079,0,0.092,0c0-0.606,0.403-0.831,0.366-1.47c0.045,0,0.078,0,0.104,0c-0.018-0.436,0.128-0.713,0.066-1.183
			c0.172,0.05,0.103-0.12,0.11-0.211C414.383,22.559,414.357,22.417,414.534,22.467z M414.123,25.125
			c-0.049,0.175-0.008,0.36-0.066,0.539c0,0.004-0.089,0.012-0.104,0.032c-0.097,0.221-0.089,0.607-0.177,0.789
			c-0.008,0.023-0.1,0-0.106,0.039c-0.033,0.083,0.016,0.165,0,0.252c-0.08,0.242-0.354,0.496-0.43,0.756
			c-0.017,0.074,0.024,0.157,0,0.215c-0.041,0.092-0.179,0.163-0.221,0.258c-0.089,0.187-0.145,0.391-0.187,0.502
			c-0.089,0.227-0.119,0.432-0.189,0.682c-0.056,0.235-0.202,0.453-0.279,0.721c-0.041,0.146-0.033,0.316-0.076,0.46
			c-0.041,0.138-0.188,0.444-0.21,0.545c-0.069,0.261-0.077,0.56-0.077,0.86c0.008,0.091-0.14,0.024-0.104,0.14
			c-0.044,0.645-0.102,1.263-0.085,1.977c0.019,0.09-0.144,0.028-0.104,0.146c0.151,0.785,0.104,1.751,0.188,2.612
			c-0.006,0.094,0.136,0.035,0.104,0.151c-0.043,0.453,0.177,0.652,0.177,1.071c0,0.072,0.11,0.023,0.093,0.104
			c0.103,0.74,0.71,0.978,0.734,1.803c0.016,0.066,0.138,0.025,0.106,0.139c0,0.193,0,0.381,0,0.579
			c0.009,0.093-0.14,0.026-0.106,0.144c-0.214,0.914-0.772,1.491-1.719,1.646c-0.076,0.008-0.035,0.136-0.153,0.096
			c-0.332,0.082-0.674-0.058-0.818-0.096c-0.072-0.019-0.17,0.008-0.229,0c-0.084-0.025-0.136-0.123-0.251-0.179
			c-0.113-0.058-0.269-0.025-0.331-0.082c-0.125-0.088-0.722-0.697-0.787-0.818c-0.114-0.284-0.365-0.434-0.452-0.718
			c-0.118-0.322-0.127-0.515-0.185-0.829c-0.008-0.075-0.139-0.026-0.104-0.143c-0.043-0.66,0.033-1.221,0.104-1.756
			c0.016-0.074,0.136-0.029,0.101-0.148c0.146-0.855,0.625-1.382,0.827-2.184c0-0.452,0-0.91,0-1.362
			c-0.13-0.111-0.169-0.333-0.185-0.578c-0.157-0.037-0.114-0.273-0.277-0.314c-0.098-0.502-0.55-0.649-0.833-0.967
			c-0.424,0.004-0.432-0.403-0.901-0.363c-0.032-0.086-0.032-0.081-0.094-0.103c-1.456-0.408-3.012,0.27-3.563,1.08
			c0,0.045,0,0.096,0,0.144c0.229,0.058,0.347,0.23,0.611,0.258c0.085,0.116,0.156,0.288,0.394,0.279
			c0.074,0.331,0.31,0.389,0.404,0.643c0.114,0.357,0.106,0.776,0.073,1.037c-0.018,0.107-0.152,0.291-0.179,0.324
			c-0.023,0.036,0.033,0.145,0,0.184c-0.008,0.008-0.098-0.017-0.113,0c-0.146,0.34-0.146,0.792-0.349,1.075
			c0,0.117,0,0.232,0,0.361c-0.019,0.064-0.136,0.023-0.104,0.137c-0.117,0.902-0.085,1.965,0,2.871
			c0.139,0.307,0.268,0.609,0.282,1.038c0.115,0.099,0.204,0.243,0.171,0.474c0.156,0.164,0.301,0.326,0.292,0.64
			c0.09,0.008,0.123,0.088,0.107,0.214c0.33,0.365,0.599,0.799,0.825,1.261c0.34,0.261,0.601,0.575,0.83,0.931
			c0.069,0,0.138,0,0.209,0c0.271,0.385,0.603,0.701,1.122,0.838c-0.061,0.125,0.094,0.076,0.07,0.178
			c0.549,0.193,0.93,0.553,1.586,0.637c0.091,0.161,0.344,0.161,0.574,0.178c0.025,0.063-0.008,0.123,0.092,0.111
			c0.284,0.027,0.573,0.044,0.764,0.169c2.146,0.105,4.729,0.12,6.875,0c0.063-0.008,0.024-0.133,0.13-0.095
			c0.95-0.074,1.475-0.533,2.31-0.723c0.231-0.262,0.599-0.393,0.937-0.533c0.604-0.547,1.157-1.122,1.771-1.648
			c0-0.062,0-0.113,0-0.171c0.854-0.853,1.29-2.11,1.69-3.419c0.106-0.959,0.095-2.227,0-3.189
			c-0.153-0.143-0.153-0.447-0.188-0.716c-0.196-0.475-0.448-0.892-0.399-1.615c0.104-0.163,0.203-0.362,0.22-0.606
			c0.088-0.048,0.152-0.111,0.222-0.174c0.171-0.488,0.782-0.54,1.14-0.83c0.008-0.253-0.288-0.204-0.253-0.499
			c-0.282,0.004-0.354-0.198-0.459-0.356c-0.452-0.055-0.607-0.399-1.152-0.36c-0.092,0.012-0.033-0.135-0.136-0.106
			c-0.455,0-0.928,0-1.372,0c-0.1-0.008-0.033,0.139-0.139,0.106c-0.388-0.059-0.407,0.223-0.759,0.181
			c-0.556,0.524-1.31,0.814-1.471,1.723c-0.261,0.112-0.163,0.584-0.188,0.943c0,0.087-0.106,0.073-0.106,0.17
			c0.1-0.055,0.1,0.161,0,0.107c-0.022,0.124,0.133,0.086,0.106,0.215c-0.015,0.672,0.214,1.121,0.469,1.507
			c0.1,0.405,0.255,0.764,0.363,1.143c0,0.137,0,0.261,0,0.396c0.184,0.445,0.028,1.134,0,1.623
			c0.021,0.087-0.141,0.025-0.108,0.134c0.061,0.203-0.135,0.345-0.171,0.401c-0.056,0.059-0.033,0.244-0.084,0.318
			c-0.077,0.121-0.238,0.227-0.279,0.323c-0.125,0.235-0.269,0.413-0.468,0.607c-0.375,0.356-0.661,0.534-1.123,0.745
			c-0.112,0-0.235,0-0.355,0c-0.234,0.301-0.533-0.084-0.903,0c-0.101-0.119-0.264-0.188-0.495-0.17
			c-0.653-0.543-1.285-1.104-1.154-2.406c0.152-0.059,0.074-0.204,0.1-0.323c0.019-0.024,0.097-0.012,0.111-0.03
			c0.029-0.045-0.033-0.141,0-0.186c0.029-0.055,0.146-0.055,0.169-0.107c0.069-0.089,0.085-0.342,0.188-0.502
			c0.013-0.021,0.104-0.021,0.104-0.035c0.043-0.095,0.025-0.236,0.071-0.322c0.015-0.021,0.099-0.021,0.106-0.036
			c0.084-0.159,0.134-0.42,0.188-0.536c0.125-0.331,0.104-0.677,0.278-1.005c0.209-1.349,0.195-2.904,0.171-4.479
			c-0.185-0.298-0.085-0.887-0.171-1.3c-0.023-0.064-0.135-0.023-0.102-0.139c-0.28-1.814-1.004-3.156-1.596-4.671
			c-0.041-0.609-0.357-0.976-0.351-1.644c-0.112,0.025-0.069-0.096-0.188-0.079C414.335,24.689,414.188,24.975,414.123,25.125z
			 M412.52,47.432c-0.046,0.781-0.095,1.896,0.038,2.619c0.967,0.122,2.196,0.262,3.091-0.031c0.169-0.723,0.036-1.748,0.09-2.588
			C414.644,47.432,413.581,47.432,412.52,47.432z"/>
		<path fill="#00243A" d="M385.049,25.664c0.939-0.175,1.729,0.435,1.842,1.141c0.403,2.349-3.309,2.503-3.067,0.146
			C383.917,26.237,384.412,25.783,385.049,25.664z"/>
		<path fill="#00243A" d="M443.364,26.124c1.116-0.169,2.217,0.911,1.649,2.159c-0.152,0.34-0.463,0.602-0.689,0.724
			c-0.979,0.511-2.351-0.28-2.261-1.508C442.118,26.718,442.654,26.237,443.364,26.124z"/>
		<path fill="#00243A" d="M414.534,28.175c-0.11,2.096,0.765,3.225,1.298,4.696c0,0.105,0,0.212,0,0.324
			c-0.03,0.111,0.097,0.074,0.104,0.138c0,0.634,0,1.269,0,1.905c-0.095,0.087-0.127,0.253-0.104,0.46
			c-0.286,0.989-0.827,1.731-1.231,2.618c0,0.096,0,0.188,0,0.289c-0.065,0.052-0.117,0.106-0.177,0.178c-0.152,0-0.315,0-0.456,0
			c-0.081-0.117-0.161-0.221-0.283-0.278c0.049-0.956-0.591-1.237-0.721-2.01c-0.131-0.049-0.081-0.265-0.223-0.286
			c-0.027-0.285-0.035-0.599-0.185-0.756c-0.057-0.752-0.049-1.221,0-1.977c-0.03-0.111,0.091-0.075,0.101-0.143
			c0.226-1.461,1.124-2.23,1.3-3.724c-0.037-0.114,0.109-0.056,0.1-0.15C414.163,29.011,414.001,27.843,414.534,28.175z
			 M414.123,30.829c-0.032,0.202,0,0.467-0.171,0.535c0,0.219-0.007,0.423-0.177,0.459c0.11,0.138-0.124,0.333-0.106,0.292
			c-0.063,0.169,0.016,0.459-0.179,0.543c0.033,0.324-0.129,0.459-0.082,0.816c-0.036,0-0.08,0-0.104,0
			c0.041,0.138-0.082,0.44,0.071,0.462c0.113-0.614,1.533-0.625,1.769-0.105c0.095-0.145,0.023-0.44,0.04-0.638
			c-0.05-0.008-0.099,0-0.099-0.041c0.059-0.341-0.112-0.467-0.087-0.792c-0.051-0.003-0.09,0.004-0.09-0.036
			c-0.058-0.452-0.317-0.69-0.365-1.142c-0.041-0.008-0.098,0.004-0.104-0.038c0.057-0.223-0.098-0.231-0.082-0.431
			c-0.032,0-0.081,0-0.097,0C414.262,30.811,414.229,30.848,414.123,30.829z M413.306,35.852c0.041,0.011,0.079,0.032,0.104,0.079
			c-0.047,0.278,0.125,0.349,0.082,0.635c0.13,0.113,0.155,0.345,0.179,0.582c0.299,0.192,0.261,0.731,0.577,0.937
			c0-0.26,0.236-0.303,0.178-0.608c0.251-0.078,0.202-0.379,0.29-0.58c0-0.004,0.081-0.018,0.1-0.035
			c0.073-0.096,0.03-0.291,0.073-0.402c0.023-0.051,0.088-0.035,0.104-0.103c0.115-0.376,0.225-0.653,0.115-0.936
			c-0.276,0.405-1.186,0.464-1.655,0.18c-0.064-0.044,0.024-0.238-0.145-0.18C413.306,35.56,413.306,35.702,413.306,35.852z"/>
		<path fill="#00243A" d="M406.616,33.767c0.354-0.054,0.381,0.223,0.646,0.257c0.186,0.465,0.371,0.926,0.292,1.649
			c-0.047,0.124-0.155,0.178-0.106,0.389c-0.133,0.208-0.18,0.499-0.186,0.829c0.034,0.112-0.112,0.051-0.104,0.142
			c0.016,0.823-0.245,1.817,0.104,2.44c-0.043,0.791,0.393,1.139,0.647,1.641c0,0.107,0,0.225,0,0.326
			c-0.138,0.057-0.216,0.187-0.286,0.283c-1.053,0-1.625-0.486-2.167-1.006c-0.049,0-0.104,0-0.179,0
			c-0.299-0.396-0.533-0.869-0.724-1.396c0.025-0.672-0.038-1.119,0.09-1.539c0.009-0.074,0.093-0.04,0.101-0.104
			c0.069-0.153,0-0.291,0.079-0.436c0.008-0.017,0.09-0.017,0.1-0.038c0.013-0.028-0.024-0.107,0-0.137
			c0.023-0.039,0.151-0.07,0.176-0.107c0.018-0.047-0.031-0.146,0-0.178c0.212-0.264,0.521-0.486,0.771-0.719
			c0.253-0.246,0.562-0.463,0.756-0.714c0.04-0.051,0.025-0.158,0.082-0.221c0.033-0.054,0.146-0.062,0.182-0.104
			c0.033-0.041-0.035-0.132,0-0.179c0.033-0.07,0.134-0.123,0.101-0.356c-0.017-0.116-0.21-0.198-0.101-0.324
			C406.801,34.021,406.578,34.021,406.616,33.767z M405.569,37.208c-0.105,0.485-0.292,0.876-0.366,1.403
			c0.204,0.013,0.147-0.229,0.253-0.283c0.373-0.111,0.842-0.119,0.953,0.213c-0.119-1.159,0.266-1.834,0.461-2.681
			C406.248,36.122,405.968,36.714,405.569,37.208z M405.602,39.721c-0.048-0.078-0.072-0.188-0.218-0.18
			c0.154,0.602,0.641,0.859,0.947,1.295c0.434,0.085,0.59,0.441,1.123,0.434c-0.263-0.641-0.677-1.093-0.83-1.828
			C406.238,39.488,406.137,39.836,405.602,39.721z"/>
		<path fill="#00243A" d="M421.807,33.843c0.116,0,0.231,0,0.353,0c0,0.091,0,0.186,0,0.282c-0.332,0.024-0.426,0.29-0.472,0.606
			c0.017,0.044,0.078,0.028,0.119,0.041c0,0.503,0.435,0.565,0.536,0.963c0.327,0.316,0.715,0.582,0.927,1.005
			c0.235,0.083,0.202,0.414,0.423,0.499c0.022,0.161,0.022,0.336,0.169,0.356c0.09,0.608,0.09,1.395,0,2.008
			c-0.169,0.047-0.169,0.258-0.169,0.475c-0.18-0.07-0.066,0.163-0.221,0.096c-0.202,0.493-0.537,0.846-0.979,1.081
			c-0.074,0.084-0.099,0.193-0.274,0.177c-0.049,0.01-0.035,0.07-0.035,0.104c-0.354,0.068-0.547,0.305-0.91,0.369
			c-0.042,0-0.025,0.064-0.033,0.097c-0.136-0.134-0.434-0.104-0.649-0.178c-0.049-0.235-0.15-0.397-0.108-0.722
			c0.31-0.091,0.25-0.555,0.511-0.674c-0.023-0.615,0.298-0.902,0.256-1.549c0.042,0,0.078,0,0.104,0c0-0.535,0-1.072,0-1.615
			c-0.008-0.045-0.069-0.029-0.104-0.037c0.025-1.229-0.779-2.978,0.589-3.301C421.807,33.912,421.807,33.875,421.807,33.843z
			 M421.98,38.716c0.227-0.373,1.027-0.373,1.182,0.074c0.131-0.327-0.079-0.604-0.177-0.826c-0.06-1.069-0.762-1.482-1.267-2.112
			C421.688,36.748,422.368,37.707,421.98,38.716z M420.974,41.439c0.536-0.058,0.714-0.486,1.186-0.607
			c0.098-0.244,0.389-0.29,0.438-0.576c0.041,0,0.09,0,0.14,0c0.048-0.154,0.015-0.387,0.251-0.355c0-0.063,0-0.117,0-0.18
			c-0.276,0.086-0.778,0.125-1.005-0.037c0.009-0.15-0.065-0.222-0.175-0.25C421.679,40.256,421.162,40.686,420.974,41.439z"/>
		<path fill="#00243A" d="M445.333,35.491c0.144-0.067,0.371-0.051,0.427-0.181c0.52,0.015,0.771-0.56,1.304-0.286
			c0.085,0.371-0.18,0.371-0.469,0.467c-0.21,0.073-0.566,0.252-0.788,0.361c-0.45,0.23-0.45,0.211-0.428,1.003
			c0.366,0.166,1.598-0.215,1.508,0.287c-0.049,0.307-1.076,0.172-1.508,0.172c-0.62,0-1.216,0-1.646,0
			c-0.188-0.563-0.188-1.695,0.097-2.12C444.309,34.735,445.097,35.024,445.333,35.491z M444.721,35.491
			c-0.942-0.262-0.583,0.78-0.644,1.399c0.271,0,0.549,0,0.833,0c0-0.413,0-0.809,0-1.217
			C444.836,35.618,444.713,35.626,444.721,35.491z"/>
		<path fill="#00243A" d="M384.335,35.738c0,0.09,0,0.188,0,0.284c-0.39,0.187-0.964,0.104-1.509,0.104
			c-0.551,0-1.118,0.035-1.59-0.033c-0.127-0.056-0.262-0.317-0.143-0.502c0.516,0,1.123,0,1.69,0
			C383.348,35.595,383.963,35.502,384.335,35.738z"/>
		<path fill="#00243A" d="M384.335,36.891c0.06,0.258-0.063,0.349-0.181,0.467c-0.09,0.072-0.152,0.067-0.262,0.143
			c-0.076,0.053-0.084,0.188-0.146,0.216c-0.069,0.042-0.197,0.026-0.271,0.074c-0.388,0.19-0.816,0.61-1.183,0.788
			c0.485,0.18,2.724-0.293,1.94,0.503c-0.993,0-1.989,0-2.996,0c0.061-0.142-0.086-0.082-0.108-0.142
			c-0.052-0.321,0.265-0.271,0.296-0.506c0.348-0.033,0.432-0.336,0.794-0.35c0.392-0.303,0.796-0.557,1.257-0.793
			c-0.349-0.064-0.826-0.041-1.257-0.041c-0.437,0-0.946,0.104-1.159-0.139c-0.024-0.215,0.164-0.201,0.205-0.322
			c0.997,0,1.977,0,2.971,0C384.227,36.863,384.257,36.895,384.335,36.891z"/>
		<path fill="#00243A" d="M443.722,37.893c0.813-0.043,1.414,0.117,2.219,0.071c0.33,0.222,0.728,0.364,0.728,0.901
			c0.008,0.058,0.114,0.016,0.114,0.078c0,0.089,0,0.164,0,0.248c-0.161,0.297-0.25,0.673-0.479,0.901
			c-0.152-0.008-0.301-0.024-0.323,0.101c-0.949,0.054-1.7-0.101-2.539-0.176c0-0.153,0-0.315,0-0.459
			c0.941-0.039,1.59,0.219,2.539,0.178c0.201-0.139,0.201-0.485,0.323-0.688c-0.104-0.087-0.113-0.282-0.17-0.427
			c-0.131-0.089-0.382-0.035-0.43-0.184c-0.343,0-0.674,0-1.012,0c-0.142-0.196-0.607-0.076-0.901-0.105
			C443.714,38.232,443.714,38.07,443.722,37.893z"/>
		<path fill="#00243A" d="M384.512,39.648c0.077,0.492,0.123,1.134,0,1.612c-0.457,0.486-1.02,0.868-2.082,0.757
			c-0.242-0.115-0.434-0.277-0.722-0.355c-0.235-0.417-0.455-1.184-0.284-1.76c0.188,0,0.381,0,0.567,0
			c0.332-0.248,1.104-0.059,1.444-0.287C383.9,39.688,384.243,39.449,384.512,39.648z M381.885,40.367
			c0.023,0.591,0.114,1.109,0.772,1.072c0.057,0.283,0.52,0.021,0.565,0c0.387-0.109,0.748-0.187,0.916-0.431
			c0-0.309,0-0.622,0-0.928C383.322,40.118,382.616,40.247,381.885,40.367z"/>
		<path fill="#00243A" d="M444.795,40.611c0.059,0.105,0.033,0.31,0.22,0.285c0.091,0.461,0.113,1.103-0.098,1.443
			c0.089,0.223,0.552,0.087,0.633,0.323c0.195,0,0.379,0,0.592,0c0.171,0.229,0,0.584-0.335,0.534
			c-0.076,0.018-0.068-0.057-0.068-0.096c-0.78,0.039-1.162-0.302-1.938-0.262c-0.106-0.152-0.409-0.104-0.657-0.104
			c0.053-0.146-0.041-0.18-0.102-0.211C443.063,41.334,443.328,40.375,444.795,40.611z M443.608,42.275
			c0.3,0,0.446,0.178,0.822,0.094c0.009-0.383,0.188-0.605,0.112-1.072c-0.104-0.068-0.296-0.052-0.278-0.221
			C443.65,41.092,443.676,41.732,443.608,42.275z"/>
		<path fill="#00243A" d="M384.982,42.372c0.265,0.47-0.23,0.503-0.502,0.649c-0.939,0.043-1.531,0.429-2.489,0.453
			c0.024-0.091-0.009-0.121-0.106-0.098c-0.029-0.227,0.023-0.355,0.106-0.47C383.104,42.842,383.9,42.471,384.982,42.372z"/>
		<path fill="#00243A" d="M445.939,44.102c-0.041,0.571-0.813,0.43-1.179,0.678c-0.573,0.041-1.04,0.181-1.434,0.398
			c0.161,0.049,0.225,0.195,0.488,0.143c0.448,0.263,1.223,0.207,1.555,0.57c0.039,0.164-0.081,0.142-0.081,0.26
			c-1.034-0.096-1.793-0.52-2.814-0.641c-0.083-0.111-0.226-0.193-0.177-0.461c0.408-0.414,1.27-0.359,1.794-0.648
			c0.272-0.065,0.71,0.031,0.792-0.211c-0.619-0.178-1.227-0.405-1.938-0.502c-0.086-0.155-0.247-0.303-0.109-0.472
			c0.135,0,0.263,0,0.396,0c0.544,0.187,1.105,0.357,1.697,0.472C445.192,43.889,445.832,43.727,445.939,44.102z"/>
		<path fill="#00243A" d="M385.441,44.205c0.016,0.202,0.125,0.309,0.086,0.574c-0.674,0.609-1.607,0.99-2.23,1.654
			c-0.261-0.064-0.201,0.17-0.398,0.17c-0.098-0.064-0.15-0.162-0.254-0.209c0.024-0.433,0.459-0.424,0.565-0.771
			c-0.185-0.286-0.253-0.688-0.387-1.037c-0.362,0.032-0.528-0.126-0.769-0.229c-0.146-0.647,1.319-0.231,1.809-0.346
			C384.202,44.289,385.07,43.994,385.441,44.205z M383.59,45.43c0.079,0,0.156,0,0.25,0c0.264-0.35,0.749-0.453,0.967-0.828
			c-0.455,0-0.938,0-1.406,0C383.371,44.968,383.598,45.073,383.59,45.43z"/>
		<path fill="#00243A" d="M385.996,46.031c0.082,0.103,0.105,0.234,0.189,0.326c-0.488,0.806-1.179,1.422-1.656,2.215
			c0.734-0.088,1.294-0.662,2.223-0.68c0.073,0.092,0.096,0.2,0.081,0.364c-0.155-0.016-0.235,0.058-0.261,0.177
			c-0.154-0.021-0.271,0-0.317,0.108c-0.655,0.12-1.094,0.483-1.759,0.604c-0.171,0.146-0.364,0.258-0.737,0.213
			c0.033-0.084-0.008-0.125-0.098-0.101c0-0.759,0.487-1.03,0.876-1.401c0.082-0.325,0.352-0.488,0.537-0.727
			c-0.043-0.205,0.111-0.214,0.177-0.313c-0.343-0.047-0.616,0.305-1.037,0.313c-0.333,0.186-0.621,0.426-1.096,0.469
			c-0.009-0.203-0.161-0.259-0.101-0.533c0.356-0.115,0.688-0.233,0.969-0.395C384.729,46.547,385.141,46.078,385.996,46.031z"/>
		<path fill="#00243A" d="M441.739,46.68c1.105,0.043,2.122,0.15,3.233,0.176c0.018,0.072,0.073,0.098,0.114,0.154
			c0.009,0.406-0.479,0.309-0.863,0.316c-0.207,0.388-0.315,0.835-0.434,1.288c0.12,0.213,0.438,0.255,0.47,0.577
			c-0.243,0.463-0.443-0.024-0.696-0.215c-0.033-0.029-0.132-0.009-0.18-0.031c-0.131-0.086-0.284-0.373-0.43-0.469
			c-0.057-0.035-0.172-0.023-0.179-0.035c-0.022-0.021,0.024-0.127,0-0.144c-0.065-0.044-0.163-0.032-0.22-0.073
			c-0.218-0.138-0.341-0.414-0.514-0.535c-0.043-0.022-0.11,0.017-0.142,0c-0.163-0.106-0.239-0.332-0.353-0.469
			C441.536,46.96,441.754,46.928,441.739,46.68z M442.375,47.506c0.463,0.112,0.479,0.646,1.063,0.639
			c0.045-0.34,0.314-0.455,0.276-0.891c-0.435,0-0.89,0-1.339,0C442.375,47.343,442.375,47.419,442.375,47.506z"/>
		<path fill="#00243A" d="M441.739,49.982c0.799,0.052,1.241-0.256,2.06-0.185c-0.052,0.129,0.117,0.056,0.092,0.185
			c-0.322,0.552-1.571,0.175-1.981,0.644c0.105,0.161,0.105,0.31,0.324,0.462c0.22,0.162,0.808,0.234,0.781,0.575
			c-0.008,0.106-0.111,0.196-0.244,0.252c-0.861-0.422-1.599-0.947-2.523-1.289c0.065-0.194-0.137-0.129-0.105-0.289
			c0.311-0.458,0.778,0.281,1.128,0.037c-0.009,0.09-0.009,0.181,0.065,0.181c0.275-0.246-0.188-0.619-0.139-1.007
			c-0.21-0.282-0.496-1.208,0.179-0.934C441.464,49.102,441.633,49.516,441.739,49.982z"/>
		<path fill="#00243A" d="M388.039,50.626c0.043,0.112,0.161,0.146,0.105,0.356c-0.811,0.526-1.81,0.886-2.549,1.466
			c-0.188,0.05-0.24-0.056-0.356-0.072c0.016-0.11-0.015-0.177-0.078-0.209c0.562-0.634,1.735-1.008,2.481-1.437
			C387.691,50.709,387.848,50.545,388.039,50.626z"/>
		<path fill="#00243A" d="M388.51,51.445c0.076,0.096,0.092,0.234,0.18,0.324c-0.306,0.84-0.785,1.513-1.127,2.334
			c0.521-0.324,1.117-0.574,1.51-1.004c0.138,0,0.291,0,0.435,0c0.041,0.104,0.089,0.189,0.111,0.281
			c-0.239,0.087-0.239,0.396-0.591,0.357c-0.082,0.008-0.068,0.088-0.068,0.188c-0.617,0.297-1.21,0.633-1.648,1.109
			c-0.17,0-0.354,0-0.502,0c-0.039-0.209-0.102-0.369-0.089-0.646c0.445-0.617,0.802-1.322,1.13-2.076
			c-0.621,0.355-1.179,0.799-1.804,1.184c-0.222,0-0.271-0.163-0.371-0.275c0.412-0.601,1.28-0.723,1.685-1.297
			C387.896,51.889,387.919,51.395,388.51,51.445z"/>
		<path fill="#00243A" d="M438.495,52.924c0.104,0,0.213,0,0.335,0c0.136,0.379,0.375,0.672,0.383,1.182
			c0.102,0.145,0.141,0.332,0.188,0.531c0.417,0.223,0.74,0.514,1.113,0.766c0,0.127,0,0.264,0,0.389
			c-0.146-0.038-0.138,0.091-0.25,0.082c-0.615-0.68-1.6-0.988-2.992-0.893c0-0.188-0.017-0.383,0.073-0.472
			c0.498-0.018,1.086,0.058,1.521-0.028C438.708,54,438.411,53.504,438.495,52.924z"/>
		<path fill="#00243A" d="M390.854,55.969c-0.09,0-0.192,0-0.285,0c-0.086-0.488,0.093-0.988-0.396-1.299
			c-0.239-0.023-0.43,0-0.539,0.105c-0.022,0.608,0.24,0.836,0.403,1.355c0.059,0.178-0.07,0.208-0.111,0.29
			c-0.068,0.091-0.06,0.279-0.101,0.356c-0.078,0.091-0.255,0.123-0.283,0.291c-0.539,0.191-0.919-0.07-1.302-0.217
			c-0.281-0.267-0.774-1.687,0.102-1.653c0.161,0.347-0.059,0.64,0.068,1.047c0.206,0.185,0.341,0.438,0.792,0.354
			c0.11-0.048,0.092-0.211,0.261-0.224c0.055-0.319-0.056-0.493-0.107-0.749c-0.043-0.188-0.22-0.299-0.256-0.536
			c-0.058-0.417,0.086-0.592,0.363-0.899c0.803-0.215,1.334,0.289,1.586,0.85C391.081,55.48,390.936,55.693,390.854,55.969z"/>
		<path fill="#00243A" d="M437.627,55.723c0,0.603-1.14,0.067-1.214,0.605c0,0.188,0,0.381,0,0.581
			c0.074,0.128,0.267,0.128,0.218,0.39c0.307,0.348,0.665,0.655,1.367,0.614c0.286-0.172,0.549-0.351,0.456-0.907
			c-0.162-0.371-0.62-0.148-0.704,0.145c-0.21,0.037-0.31-0.027-0.413-0.096c0.016-0.269,0.359-0.779,0.539-0.828
			c0.109-0.033,0.245,0.021,0.408,0c0.178,0.237,0.39,0.463,0.646,0.646c0.085,0.835-0.244,1.253-0.762,1.475
			c-1.148,0.127-1.604-0.434-2.137-0.9c-0.023-0.204-0.049-0.414-0.18-0.504c-0.085-0.731,0.25-1.037,0.568-1.361
			C436.858,55.543,437.425,55.385,437.627,55.723z"/>
		<path fill="#00243A" d="M391.324,55.855c0.104,0,0.242,0,0.355,0c0.504,0.535,0.997,1.063,1.508,1.586c0,0.119,0,0.238,0,0.355
			c-0.573,0.069-0.625-0.393-0.938-0.582c-0.644,0.521-1.267,1.072-1.801,1.688c-0.134,0-0.259,0-0.368,0
			c-0.021-0.127-0.105-0.2-0.068-0.397c0.605-0.551,1.182-1.124,1.821-1.646C391.771,56.439,391.234,56.456,391.324,55.855z"/>
		<path fill="#00243A" d="M435.973,60.621c-1.258,0.204-1.658-0.418-2.164-0.994c-0.099-0.422-0.241-0.793-0.099-1.216
			c0.066-0.156,0.229-0.245,0.188-0.431c0.194-0.026,0.25-0.195,0.47-0.184c0.089-0.234,0.585-0.057,0.853-0.104
			c0.76,0.399,1.413,0.896,1.406,2.041c-0.115,0.197-0.257,0.406-0.317,0.641C436.201,60.471,435.998,60.471,435.973,60.621z
			 M434.756,59.982c0.072,0.05,0.238-0.073,0.177,0.115c0.3,0,0.476,0.104,0.83,0.068c0.835-0.589,0.066-1.756-0.606-2.009
			c-0.256,0.024-0.588-0.058-0.759,0.032C433.739,58.611,434.288,59.701,434.756,59.982z"/>
		<path fill="#00243A" d="M394.186,58.158c0,0.113,0,0.244,0,0.355c-0.193,0.336-0.722,0.504-0.931,0.899
			c-0.133,0.262-0.317,0.431-0.571,0.685c-0.264,0.262-0.435,0.58-0.922,0.531c0-0.145,0-0.3,0-0.455
			c0.781-0.604,1.33-1.439,2.062-2.082C394.021,58.043,394.016,58.189,394.186,58.158z"/>
		<path fill="#00243A" d="M394.698,58.805c0.101,0.057,0.161,0.146,0.36,0.105c0.01,0.086,0.106,0.091,0.084,0.251
			c0.063,0,0.106,0,0.186,0c0.333,0.54,1.063,0.675,1.313,1.292c-0.152,0.09-0.192,0.168-0.314,0.177
			c-0.218,0.009-0.665-0.541-0.771-0.532c-0.072,0-0.355,0.299-0.423,0.404c-0.022,0.025,0.019,0.096,0,0.128
			c-0.095,0.146-0.272,0.195-0.358,0.295c0,0.058,0,0.109,0,0.175c-0.377,0.262-0.58,0.692-0.867,1.004
			c-0.264,0.021-0.409-0.095-0.463-0.285c0.548-0.67,1.058-1.389,1.615-2.047c0.01-0.062-0.039-0.069-0.029-0.136
			c-0.379-0.049-0.434-0.382-0.648-0.587C394.473,58.951,394.512,58.805,394.698,58.805z"/>
		<path fill="#00243A" d="M433.204,62.104c0.676-0.15,0.783-0.852,1.552-0.896c0.067,0.081,0.09,0.193,0.072,0.355
			c-0.44,0.431-1.061,0.705-1.464,1.188c-0.092,0-0.199,0-0.294,0c-0.585-0.757-1.09-1.566-1.763-2.229c0-0.107,0-0.237,0-0.354
			c0.232-0.169,0.58-0.027,0.58,0.253C432.398,60.911,432.722,61.583,433.204,62.104z"/>
		<path fill="#00243A" d="M397.546,60.816c0.117,0.349-0.177,0.496-0.263,0.673c-0.06,0.155-0.108,0.155-0.215,0.28
			c-0.15,0.229-0.117,0.461-0.357,0.541c-0.04,0.258-0.136,0.43-0.288,0.582c-0.021,0.566,0.267,0.826,0.86,0.776
			c0.521-0.563,0.933-1.231,1.305-1.935c0.261-0.018,0.521-0.018,0.463,0.272c-0.041,0.095-0.09,0.156-0.186,0.196
			c-0.024,0.225-0.132,0.363-0.277,0.453c0,0.074,0,0.115,0,0.186c-0.598,0.553-0.472,1.422-1.813,1.264
			c-0.091-0.023-0.148-0.125-0.36-0.076c-0.062-0.188-0.229-0.262-0.347-0.369c-0.155-0.372-0.266-0.736-0.115-1.108
			c0.013-0.008,0.1-0.024,0.115-0.041c0.016-0.04-0.036-0.106,0-0.146c0.032-0.051,0.133-0.088,0.161-0.143
			c0.022-0.035-0.028-0.109,0-0.141c0.077-0.1,0.26-0.173,0.299-0.282c0.015-0.054-0.025-0.14,0-0.181
			c0.021-0.059,0.136-0.064,0.176-0.098c0.016-0.041-0.025-0.106,0-0.146c0.033-0.065,0.121-0.082,0.179-0.149
			c0.139-0.193,0.104-0.377,0.271-0.504C397.385,60.688,397.369,60.843,397.546,60.816z"/>
		<path fill="#00243A" d="M430.363,60.99c0.111,0.053,0.179,0.156,0.4,0.109c0.517,0.164,0.776,0.586,1.115,0.926
			c0.041,0.252,0.033,0.543,0.179,0.683c0.053,0.681-0.261,0.987-0.575,1.331c-0.344,0.02-0.606,0.123-0.94,0.077
			c-0.101-0.025-0.34-0.101-0.468-0.185c-0.084-0.064-0.587-0.644-0.637-0.859c-0.027-0.11-0.152-0.18-0.188-0.213
			c-0.018-0.059,0.036-0.151,0-0.229c-0.041-0.11-0.117-0.218-0.092-0.459c0.006-0.071,0.084-0.062,0.092-0.146
			c0.036-0.082-0.008-0.168,0-0.209c0.13-0.344,0.453-0.676,0.867-0.717C430.188,61.051,430.194,60.941,430.363,60.99z
			 M431.587,63.207c0-0.166,0-0.331,0-0.499c0.008-0.085-0.095-0.033-0.104-0.099c0-0.784-1.101-1.463-1.764-0.793
			c0.03,0.303-0.187,0.363-0.103,0.72c0.103,0.041,0.125,0.164,0.103,0.323c0.226,0.182,0.38,0.435,0.577,0.646
			c0.146,0,0.253,0.036,0.253,0.18c0.372,0.033,0.615-0.031,0.858-0.109C431.367,63.348,431.554,63.354,431.587,63.207z"/>
		<path fill="#00243A" d="M399.528,62.287c0.171-0.1,0.334,0.068,0.391,0.102c0.146,0.057,0.322,0,0.438,0.07
			c0.063,0.045,0.063,0.182,0.146,0.216c0.122,0.074,0.302,0.025,0.421,0.079c0.06,0.018,0.123,0.163,0.188,0.18
			c0.251,0.082,0.552,0.196,0.721,0.355c0.046,0.156-0.038,0.201-0.073,0.277c-0.469,0.072-0.679-0.121-0.945-0.277
			c-0.608,0.595-0.787,1.596-1.289,2.304c-0.14,0-0.266,0-0.409,0c-0.008-0.073,0.051-0.221-0.077-0.188
			c0.389-0.785,0.784-1.545,1.185-2.324c-0.181-0.204-0.399-0.348-0.714-0.405C399.528,62.545,399.528,62.413,399.528,62.287z"/>
		<path fill="#00243A" d="M429.533,65.115c-0.103,0.025-0.215,0.109-0.317,0.099c-0.041-0.005-0.302-0.09-0.435-0.178
			c-0.04-0.035-0.059-0.151-0.104-0.175c-0.05-0.021-0.139,0.027-0.179,0c-0.138-0.104-0.391-0.401-0.585-0.541
			c-0.033-0.018-0.096,0.023-0.137,0c-0.153-0.127-0.356-0.348-0.634-0.389c0.243,0.408,0.343,0.938,0.634,1.289
			c0,0.273,0.121,0.43,0.09,0.76c-0.115-0.021-0.188,0.019-0.229,0.074c-0.526-0.355-0.549-1.216-1.006-1.646
			c-0.01-0.421-0.243-0.616-0.463-0.818c-0.092-0.567,0.35-0.575,0.762-0.462c0.019,0.143,0.188,0.143,0.229,0.273
			c0.438,0.072,0.574,0.447,0.996,0.545c0.117,0.191,0.431,0.371,0.641,0.354c-0.21-0.112-0.087-0.56-0.354-0.608
			c0-0.082,0-0.145,0-0.219c-0.132-0.088-0.804-1.111-0.286-1.174c0.269-0.049,0.383,0.549,0.527,0.856
			c0.098,0.179,0.184,0.188,0.237,0.392c0.023,0.096,0.157,0.169,0.186,0.227c0.152,0.307,0.193,0.72,0.451,0.817
			C429.533,64.87,429.635,64.879,429.533,65.115z"/>
		<path fill="#00243A" d="M426.844,66.26c-0.008,0.118-0.161,0.079-0.109,0.258c-0.662,0.119-0.452-0.604-0.77-0.867
			c0.036-0.203-0.072-0.271-0.095-0.428c-0.476,0.135-0.968,0.248-1.292,0.543c0.154,0.435,0.446,0.746,0.394,1.393
			c-0.118,0-0.246,0-0.354,0c-0.479-0.835-0.642-1.979-1.146-2.764c0.019-0.098,0.146-0.09,0.087-0.277
			c0.716-0.092,0.538,0.691,0.792,1.039c0.577-0.016,0.901-0.258,1.277-0.471c-0.256-0.25-0.539-1.816,0.169-1.117
			c0.135,0.558,0.339,1.052,0.584,1.508c0,0.195,0.043,0.379,0.173,0.433C426.57,65.843,426.716,66.039,426.844,66.26z"/>
		<path fill="#00243A" d="M404.24,64.686c-0.435-0.217-0.946-0.365-1.381-0.568c-0.218,0.123-0.318,0.354-0.354,0.675
			c0.271,0.333,1.021,0.185,0.994,0.785c-0.136-0.031-0.145,0.058-0.214,0.106c-0.302-0.139-0.588-0.297-1.037-0.295
			c-0.025,0.327-0.264,0.414-0.212,0.799c0.434,0.19,0.87,0.393,1.396,0.49c0.066,0.113,0.084,0.271,0.066,0.463
			c-0.145,0-0.297,0-0.441,0c0-0.037,0-0.074,0-0.094c-0.665-0.082-1.097-0.386-1.657-0.544c-0.009-0.827,0.46-1.175,0.536-1.94
			c0.195-0.217,0.295-0.539,0.364-0.896c0.108-0.016,0.134-0.114,0.218-0.175c0.311,0.077,0.539,0.254,0.939,0.254
			C403.728,64.021,404.854,64.17,404.24,64.686z"/>
		<path fill="#00243A" d="M423.205,65.188c0.049,0.308-0.676,0.314-0.576-0.039c-0.202-0.051-0.404-0.1-0.545-0.215
			c-0.42,0.148-0.922,0.699-0.582,1.262c0,0.111,0,0.232,0,0.355c0.248,0.273,0.542,0.836,1.012,0.785
			c0.074-0.009,0.301-0.115,0.366-0.18c0.097-0.11,0.138-0.401,0.212-0.573c0.127-0.09,0.348-0.09,0.467,0
			c-0.029,0.817-0.501,1.166-1.3,1.219c0-0.036,0-0.085,0-0.102c-0.262,0.049-0.376-0.069-0.587-0.077
			c-0.121-0.223-0.316-0.377-0.455-0.568c-0.033-0.156-0.037-0.328-0.185-0.378c-0.033-0.413-0.156-0.817-0.072-1.215
			c0.08-0.422,0.451-0.623,0.64-0.894c0.48-0.15,0.974-0.035,1.297,0.173C422.969,64.936,423.058,65.09,423.205,65.188z"/>
		<path fill="#00243A" d="M406.693,67.768c-0.037-0.084,0.063-0.05,0.07-0.101c-0.179-0.403-0.22-0.989-0.07-1.442
			c0.07-0.258,0.285-0.422,0.269-0.64c0.418-0.257,0.926-0.567,1.519-0.36c0.121,0.047,0.211,0.164,0.351,0.178
			c0.128,0.298,0.33,0.523,0.471,0.793c0,0.322,0,0.639,0,0.963c-0.269,0.646-0.78,1.388-1.8,1.183
			C407.158,68.277,406.962,68,406.693,67.768z M408.73,67.346c0.073-0.332,0.161-0.635,0.1-1.086
			c-0.16-0.089-0.13-0.363-0.271-0.494c-0.262-0.263-0.595-0.156-0.952-0.082c-0.559,0.414-0.781,1.771-0.076,2.189
			c0.223,0,0.435,0,0.647,0C408.341,67.657,408.537,67.502,408.73,67.346z"/>
		<path fill="#00243A" d="M420.217,65.223c0,0.098,0,0.191,0,0.289c-0.479,0.204-1.147,0.221-1.688,0.356
			c-0.074,0.339,0.104,0.43,0.096,0.719c0.438,0.03,0.78-0.026,1.128-0.075c0.405,0.729-0.869,0.37-1.054,0.752
			c0.218,0.098,0.016,0.609,0.228,0.721c0.602,0.064,0.981-0.11,1.472-0.178c0.136,0.006,0.117,0.178,0.271,0.178
			c-0.031,0.098-0.152,0.098-0.102,0.287c-0.765,0.023-1.303,0.28-2.111,0.258c0-0.115,0-0.228,0-0.323
			c-0.229,0.022,0-0.364-0.235-0.332c-0.059-0.115,0.123-0.017,0.105-0.099c-0.139-0.709-0.43-1.62-0.284-2.369
			C418.866,65.463,419.516,65.044,420.217,65.223z"/>
		<path fill="#00243A" d="M412.085,65.766c0.023,0.186-0.025,0.291-0.077,0.396c-0.63,0.077-0.946-0.163-1.542-0.105
			c-0.057,0.217-0.095,0.717,0.074,0.825c0.414,0.009,0.922-0.091,1.008,0.25c-0.026,0.196-0.161,0.255-0.298,0.329
			c-0.228-0.091-0.534-0.133-0.887-0.1c-0.262,0.266,0.016,1.068-0.229,1.361c-0.204,0.025-0.335-0.029-0.464-0.08
			c0.121-0.951,0.244-1.908,0.282-2.943c0.188-0.295,0.479-0.065,0.905-0.098C411.124,65.794,411.775,65.609,412.085,65.766z"/>
		<path fill="#00243A" d="M417.415,65.691c0,0.168,0,0.34-0.081,0.43c-0.24,0.082-0.612,0.018-0.904,0.033
			c-0.212,0.867,0.223,1.943-0.075,2.664c-0.235,0.072-0.229-0.086-0.365-0.103c-0.077-0.827-0.049-1.743-0.212-2.483
			c-0.066,0.007-0.076-0.029-0.076-0.078c-0.343-0.008-0.522,0.127-0.913,0.078c-0.12-0.233-0.056-0.209,0-0.455
			c0.512-0.11,1.186-0.063,1.812-0.078C416.755,65.454,417.229,65.627,417.415,65.691z"/>
	</g>
</g>
<g>
	<g>
		<path fill="#00243A" d="M320.773,58.166l-5.795-7.523l0.032,0.607l0.06,1.048v5.868h-1.315v-8.838h1.712l5.854,7.572
			c-0.072-0.817-0.098-1.416-0.098-1.775v-5.797h1.313v8.83h-1.763V58.166z"/>
		<path fill="#00243A" d="M333.48,51.988c0,0.835-0.34,1.49-1.013,1.99c-0.653,0.5-1.571,0.739-2.711,0.739h-3.19v3.447h-1.461
			v-8.838h4.558c1.21,0,2.16,0.229,2.806,0.698C333.148,50.484,333.48,51.143,333.48,51.988z M332.01,51.997
			c0-1.142-0.835-1.709-2.509-1.709h-2.908v3.485h2.976C331.188,53.773,332.01,53.182,332.01,51.997z"/>
		<path fill="#00243A" d="M339.913,58.285c-0.886,0-1.644-0.127-2.319-0.395c-0.648-0.263-1.168-0.646-1.533-1.156
			c-0.365-0.496-0.545-1.09-0.545-1.779v-5.619h1.474v5.523c0,0.806,0.265,1.416,0.756,1.832c0.501,0.423,1.233,0.623,2.169,0.623
			c0.971,0,1.736-0.209,2.279-0.644c0.537-0.435,0.793-1.067,0.793-1.896v-5.448h1.471v5.506c0,0.722-0.188,1.326-0.552,1.851
			c-0.376,0.521-0.911,0.918-1.585,1.184C341.65,58.148,340.85,58.285,339.913,58.285z"/>
		<path fill="#00243A" d="M354.604,58.166l-2.813-3.665h-3.374v3.665h-1.459v-8.838h5.094c1.214,0,2.163,0.229,2.821,0.678
			c0.663,0.445,0.988,1.066,0.988,1.854c0,0.658-0.236,1.207-0.698,1.645c-0.472,0.45-1.11,0.729-1.946,0.854l3.072,3.793h-1.686
			V58.166L354.604,58.166z M354.4,51.859c0-0.516-0.224-0.9-0.64-1.174c-0.432-0.264-1.04-0.397-1.852-0.397h-3.47v3.257h3.535
			c0.781,0,1.387-0.146,1.813-0.441C354.178,52.807,354.4,52.4,354.4,51.859z"/>
	</g>
	<g>
		<path fill="#00243A" d="M269.912,58.23v-8.91h1.488v8.91H269.912z"/>
		<path fill="#00243A" d="M274.346,58.23v-8.91h1.5v8.91H274.346z"/>
		<path fill="#00243A" d="M282.955,50.32v7.914h-1.484V50.32h-3.779v-0.992h9.041v0.992H282.955z"/>
		<path fill="#00243A" d="M299.883,58.23l-4.39-4.297l-1.457,0.881v3.416h-1.479v-8.91h1.479v4.463l5.305-4.463h1.75l-4.68,3.869
			l5.313,5.041H299.883z"/>
	</g>
	<g>
		<path fill="#00243A" d="M311.402,58.207l-1.264-2.611h-5.019l-1.282,2.611h-1.531l4.49-8.925h1.688l4.42,8.925H311.402z
			 M307.639,50.195l-0.086,0.179c-0.113,0.339-0.316,0.794-0.576,1.339l-1.396,2.934h4.103l-1.412-2.938
			c-0.146-0.295-0.282-0.62-0.436-0.995L307.639,50.195z"/>
	</g>
</g>
</svg>
